<svg xmlns="http://www.w3.org/2000/svg" width="172" height="58" viewBox="0 0 172 58" fill="none" role="img" aria-label="Sound bars"><rect x="5" y="38" width="6" height="16" rx="3" fill="currentColor"></rect><rect x="18" y="24" width="6" height="30" rx="3" fill="currentColor"></rect><rect x="31" y="8" width="6" height="46" rx="3" fill="currentColor"></rect><rect x="44" y="30" width="6" height="24" rx="3" fill="currentColor"></rect><rect x="57" y="2" width="6" height="52" rx="3" fill="currentColor"></rect><rect x="70" y="18" width="6" height="36" rx="3" fill="currentColor"></rect><rect x="83" y="34" width="6" height="20" rx="3" fill="currentColor"></rect><rect x="96" y="10" width="6" height="44" rx="3" fill="currentColor"></rect><rect x="109" y="26" width="6" height="28" rx="3" fill="currentColor"></rect><rect x="122" y="4" width="6" height="50" rx="3" fill="currentColor"></rect><rect x="135" y="32" width="6" height="22" rx="3" fill="currentColor"></rect><rect x="148" y="16" width="6" height="38" rx="3" fill="currentColor"></rect><rect x="161" y="36" width="6" height="18" rx="3" fill="currentColor"></rect></svg>