<svg xmlns="http://www.w3.org/2000/svg" width="90" height="90" viewBox="0 0 90 90"><path d="M -85.00 -71.50 A 10 10 0 0 1 -65.00 -71.50" fill="none" stroke="#F4EEE2" stroke-width="1.6" stroke-linecap="round" opacity="0.075"></path><path d="M -55.00 -71.50 A 10 10 0 0 1 -35.00 -71.50" fill="none" stroke="#F4EEE2" stroke-width="1.6" stroke-linecap="round" opacity="0.075"></path><path d="M -25.00 -71.50 A 10 10 0 0 1 -5.00 -71.50" fill="none" stroke="#F4EEE2" stroke-width="1.6" stroke-linecap="round" opacity="0.075"></path><path d="M -70.00 -41.50 A 10 10 0 0 1 -50.00 -41.50" fill="none" stroke="#F4EEE2" stroke-width="1.6" stroke-linecap="round" opacity="0.075"></path><path d="M -40.00 -41.50 A 10 10 0 0 1 -20.00 -41.50" fill="none" stroke="#F4EEE2" stroke-width="1.6" stroke-linecap="round" opacity="0.075"></path><path d="M -10.00 -41.50 A 10 10 0 0 1 10.00 -41.50" fill="none" stroke="#F4EEE2" stroke-width="1.6" stroke-linecap="round" opacity="0.075"></path><path d="M -85.00 -11.50 A 10 10 0 0 1 -65.00 -11.50" fill="none" stroke="#F4EEE2" stroke-width="1.6" stroke-linecap="round" opacity="0.075"></path><path d="M -55.00 -11.50 A 10 10 0 0 1 -35.00 -11.50" fill="none" stroke="#F4EEE2" stroke-width="1.6" stroke-linecap="round" opacity="0.075"></path><path d="M -25.00 -11.50 A 10 10 0 0 1 -5.00 -11.50" fill="none" stroke="#F4EEE2" stroke-width="1.6" stroke-linecap="round" opacity="0.075"></path><path d="M -85.00 18.50 A 10 10 0 0 1 -65.00 18.50" fill="none" stroke="#F4EEE2" stroke-width="1.6" stroke-linecap="round" opacity="0.075"></path><path d="M -55.00 18.50 A 10 10 0 0 1 -35.00 18.50" fill="none" stroke="#F4EEE2" stroke-width="1.6" stroke-linecap="round" opacity="0.075"></path><path d="M -25.00 18.50 A 10 10 0 0 1 -5.00 18.50" fill="none" stroke="#F4EEE2" stroke-width="1.6" stroke-linecap="round" opacity="0.075"></path><path d="M -70.00 48.50 A 10 10 0 0 1 -50.00 48.50" fill="none" stroke="#F4EEE2" stroke-width="1.6" stroke-linecap="round" opacity="0.075"></path><path d="M -40.00 48.50 A 10 10 0 0 1 -20.00 48.50" fill="none" stroke="#F4EEE2" stroke-width="1.6" stroke-linecap="round" opacity="0.075"></path><path d="M -10.00 48.50 A 10 10 0 0 1 10.00 48.50" fill="none" stroke="#F4EEE2" stroke-width="1.6" stroke-linecap="round" opacity="0.075"></path><path d="M -85.00 78.50 A 10 10 0 0 1 -65.00 78.50" fill="none" stroke="#F4EEE2" stroke-width="1.6" stroke-linecap="round" opacity="0.075"></path><path d="M -55.00 78.50 A 10 10 0 0 1 -35.00 78.50" fill="none" stroke="#F4EEE2" stroke-width="1.6" stroke-linecap="round" opacity="0.075"></path><path d="M -25.00 78.50 A 10 10 0 0 1 -5.00 78.50" fill="none" stroke="#F4EEE2" stroke-width="1.6" stroke-linecap="round" opacity="0.075"></path><path d="M -85.00 108.50 A 10 10 0 0 1 -65.00 108.50" fill="none" stroke="#F4EEE2" stroke-width="1.6" stroke-linecap="round" opacity="0.075"></path><path d="M -55.00 108.50 A 10 10 0 0 1 -35.00 108.50" fill="none" stroke="#F4EEE2" stroke-width="1.6" stroke-linecap="round" opacity="0.075"></path><path d="M -25.00 108.50 A 10 10 0 0 1 -5.00 108.50" fill="none" stroke="#F4EEE2" stroke-width="1.6" stroke-linecap="round" opacity="0.075"></path><path d="M -70.00 138.50 A 10 10 0 0 1 -50.00 138.50" fill="none" stroke="#F4EEE2" stroke-width="1.6" stroke-linecap="round" opacity="0.075"></path><path d="M -40.00 138.50 A 10 10 0 0 1 -20.00 138.50" fill="none" stroke="#F4EEE2" stroke-width="1.6" stroke-linecap="round" opacity="0.075"></path><path d="M -10.00 138.50 A 10 10 0 0 1 10.00 138.50" fill="none" stroke="#F4EEE2" stroke-width="1.6" stroke-linecap="round" opacity="0.075"></path><path d="M -85.00 168.50 A 10 10 0 0 1 -65.00 168.50" fill="none" stroke="#F4EEE2" stroke-width="1.6" stroke-linecap="round" opacity="0.075"></path><path d="M -55.00 168.50 A 10 10 0 0 1 -35.00 168.50" fill="none" stroke="#F4EEE2" stroke-width="1.6" stroke-linecap="round" opacity="0.075"></path><path d="M -25.00 168.50 A 10 10 0 0 1 -5.00 168.50" fill="none" stroke="#F4EEE2" stroke-width="1.6" stroke-linecap="round" opacity="0.075"></path><path d="M 5.00 -71.50 A 10 10 0 0 1 25.00 -71.50" fill="none" stroke="#F4EEE2" stroke-width="1.6" stroke-linecap="round" opacity="0.075"></path><path d="M 35.00 -71.50 A 10 10 0 0 1 55.00 -71.50" fill="none" stroke="#F4EEE2" stroke-width="1.6" stroke-linecap="round" opacity="0.075"></path><path d="M 65.00 -71.50 A 10 10 0 0 1 85.00 -71.50" fill="none" stroke="#F4EEE2" stroke-width="1.6" stroke-linecap="round" opacity="0.075"></path><path d="M 20.00 -41.50 A 10 10 0 0 1 40.00 -41.50" fill="none" stroke="#F4EEE2" stroke-width="1.6" stroke-linecap="round" opacity="0.075"></path><path d="M 50.00 -41.50 A 10 10 0 0 1 70.00 -41.50" fill="none" stroke="#F4EEE2" stroke-width="1.6" stroke-linecap="round" opacity="0.075"></path><path d="M 80.00 -41.50 A 10 10 0 0 1 100.00 -41.50" fill="none" stroke="#F4EEE2" stroke-width="1.6" stroke-linecap="round" opacity="0.075"></path><path d="M 5.00 -11.50 A 10 10 0 0 1 25.00 -11.50" fill="none" stroke="#F4EEE2" stroke-width="1.6" stroke-linecap="round" opacity="0.075"></path><path d="M 35.00 -11.50 A 10 10 0 0 1 55.00 -11.50" fill="none" stroke="#F4EEE2" stroke-width="1.6" stroke-linecap="round" opacity="0.075"></path><path d="M 65.00 -11.50 A 10 10 0 0 1 85.00 -11.50" fill="none" stroke="#F4EEE2" stroke-width="1.6" stroke-linecap="round" opacity="0.075"></path><path d="M 5.00 18.50 A 10 10 0 0 1 25.00 18.50" fill="none" stroke="#F4EEE2" stroke-width="1.6" stroke-linecap="round" opacity="0.075"></path><path d="M 35.00 18.50 A 10 10 0 0 1 55.00 18.50" fill="none" stroke="#F4EEE2" stroke-width="1.6" stroke-linecap="round" opacity="0.075"></path><path d="M 65.00 18.50 A 10 10 0 0 1 85.00 18.50" fill="none" stroke="#F4EEE2" stroke-width="1.6" stroke-linecap="round" opacity="0.075"></path><path d="M 20.00 48.50 A 10 10 0 0 1 40.00 48.50" fill="none" stroke="#F4EEE2" stroke-width="1.6" stroke-linecap="round" opacity="0.075"></path><path d="M 50.00 48.50 A 10 10 0 0 1 70.00 48.50" fill="none" stroke="#F4EEE2" stroke-width="1.6" stroke-linecap="round" opacity="0.075"></path><path d="M 80.00 48.50 A 10 10 0 0 1 100.00 48.50" fill="none" stroke="#F4EEE2" stroke-width="1.6" stroke-linecap="round" opacity="0.075"></path><path d="M 5.00 78.50 A 10 10 0 0 1 25.00 78.50" fill="none" stroke="#F4EEE2" stroke-width="1.6" stroke-linecap="round" opacity="0.075"></path><path d="M 35.00 78.50 A 10 10 0 0 1 55.00 78.50" fill="none" stroke="#F4EEE2" stroke-width="1.6" stroke-linecap="round" opacity="0.075"></path><path d="M 65.00 78.50 A 10 10 0 0 1 85.00 78.50" fill="none" stroke="#F4EEE2" stroke-width="1.6" stroke-linecap="round" opacity="0.075"></path><path d="M 5.00 108.50 A 10 10 0 0 1 25.00 108.50" fill="none" stroke="#F4EEE2" stroke-width="1.6" stroke-linecap="round" opacity="0.075"></path><path d="M 35.00 108.50 A 10 10 0 0 1 55.00 108.50" fill="none" stroke="#F4EEE2" stroke-width="1.6" stroke-linecap="round" opacity="0.075"></path><path d="M 65.00 108.50 A 10 10 0 0 1 85.00 108.50" fill="none" stroke="#F4EEE2" stroke-width="1.6" stroke-linecap="round" opacity="0.075"></path><path d="M 20.00 138.50 A 10 10 0 0 1 40.00 138.50" fill="none" stroke="#F4EEE2" stroke-width="1.6" stroke-linecap="round" opacity="0.075"></path><path d="M 50.00 138.50 A 10 10 0 0 1 70.00 138.50" fill="none" stroke="#F4EEE2" stroke-width="1.6" stroke-linecap="round" opacity="0.075"></path><path d="M 80.00 138.50 A 10 10 0 0 1 100.00 138.50" fill="none" stroke="#F4EEE2" stroke-width="1.6" stroke-linecap="round" opacity="0.075"></path><path d="M 5.00 168.50 A 10 10 0 0 1 25.00 168.50" fill="none" stroke="#F4EEE2" stroke-width="1.6" stroke-linecap="round" opacity="0.075"></path><path d="M 35.00 168.50 A 10 10 0 0 1 55.00 168.50" fill="none" stroke="#F4EEE2" stroke-width="1.6" stroke-linecap="round" opacity="0.075"></path><path d="M 65.00 168.50 A 10 10 0 0 1 85.00 168.50" fill="none" stroke="#F4EEE2" stroke-width="1.6" stroke-linecap="round" opacity="0.075"></path><path d="M 95.00 -71.50 A 10 10 0 0 1 115.00 -71.50" fill="none" stroke="#F4EEE2" stroke-width="1.6" stroke-linecap="round" opacity="0.075"></path><path d="M 125.00 -71.50 A 10 10 0 0 1 145.00 -71.50" fill="none" stroke="#F4EEE2" stroke-width="1.6" stroke-linecap="round" opacity="0.075"></path><path d="M 155.00 -71.50 A 10 10 0 0 1 175.00 -71.50" fill="none" stroke="#F4EEE2" stroke-width="1.6" stroke-linecap="round" opacity="0.075"></path><path d="M 110.00 -41.50 A 10 10 0 0 1 130.00 -41.50" fill="none" stroke="#F4EEE2" stroke-width="1.6" stroke-linecap="round" opacity="0.075"></path><path d="M 140.00 -41.50 A 10 10 0 0 1 160.00 -41.50" fill="none" stroke="#F4EEE2" stroke-width="1.6" stroke-linecap="round" opacity="0.075"></path><path d="M 170.00 -41.50 A 10 10 0 0 1 190.00 -41.50" fill="none" stroke="#F4EEE2" stroke-width="1.6" stroke-linecap="round" opacity="0.075"></path><path d="M 95.00 -11.50 A 10 10 0 0 1 115.00 -11.50" fill="none" stroke="#F4EEE2" stroke-width="1.6" stroke-linecap="round" opacity="0.075"></path><path d="M 125.00 -11.50 A 10 10 0 0 1 145.00 -11.50" fill="none" stroke="#F4EEE2" stroke-width="1.6" stroke-linecap="round" opacity="0.075"></path><path d="M 155.00 -11.50 A 10 10 0 0 1 175.00 -11.50" fill="none" stroke="#F4EEE2" stroke-width="1.6" stroke-linecap="round" opacity="0.075"></path><path d="M 95.00 18.50 A 10 10 0 0 1 115.00 18.50" fill="none" stroke="#F4EEE2" stroke-width="1.6" stroke-linecap="round" opacity="0.075"></path><path d="M 125.00 18.50 A 10 10 0 0 1 145.00 18.50" fill="none" stroke="#F4EEE2" stroke-width="1.6" stroke-linecap="round" opacity="0.075"></path><path d="M 155.00 18.50 A 10 10 0 0 1 175.00 18.50" fill="none" stroke="#F4EEE2" stroke-width="1.6" stroke-linecap="round" opacity="0.075"></path><path d="M 110.00 48.50 A 10 10 0 0 1 130.00 48.50" fill="none" stroke="#F4EEE2" stroke-width="1.6" stroke-linecap="round" opacity="0.075"></path><path d="M 140.00 48.50 A 10 10 0 0 1 160.00 48.50" fill="none" stroke="#F4EEE2" stroke-width="1.6" stroke-linecap="round" opacity="0.075"></path><path d="M 170.00 48.50 A 10 10 0 0 1 190.00 48.50" fill="none" stroke="#F4EEE2" stroke-width="1.6" stroke-linecap="round" opacity="0.075"></path><path d="M 95.00 78.50 A 10 10 0 0 1 115.00 78.50" fill="none" stroke="#F4EEE2" stroke-width="1.6" stroke-linecap="round" opacity="0.075"></path><path d="M 125.00 78.50 A 10 10 0 0 1 145.00 78.50" fill="none" stroke="#F4EEE2" stroke-width="1.6" stroke-linecap="round" opacity="0.075"></path><path d="M 155.00 78.50 A 10 10 0 0 1 175.00 78.50" fill="none" stroke="#F4EEE2" stroke-width="1.6" stroke-linecap="round" opacity="0.075"></path><path d="M 95.00 108.50 A 10 10 0 0 1 115.00 108.50" fill="none" stroke="#F4EEE2" stroke-width="1.6" stroke-linecap="round" opacity="0.075"></path><path d="M 125.00 108.50 A 10 10 0 0 1 145.00 108.50" fill="none" stroke="#F4EEE2" stroke-width="1.6" stroke-linecap="round" opacity="0.075"></path><path d="M 155.00 108.50 A 10 10 0 0 1 175.00 108.50" fill="none" stroke="#F4EEE2" stroke-width="1.6" stroke-linecap="round" opacity="0.075"></path><path d="M 110.00 138.50 A 10 10 0 0 1 130.00 138.50" fill="none" stroke="#F4EEE2" stroke-width="1.6" stroke-linecap="round" opacity="0.075"></path><path d="M 140.00 138.50 A 10 10 0 0 1 160.00 138.50" fill="none" stroke="#F4EEE2" stroke-width="1.6" stroke-linecap="round" opacity="0.075"></path><path d="M 170.00 138.50 A 10 10 0 0 1 190.00 138.50" fill="none" stroke="#F4EEE2" stroke-width="1.6" stroke-linecap="round" opacity="0.075"></path><path d="M 95.00 168.50 A 10 10 0 0 1 115.00 168.50" fill="none" stroke="#F4EEE2" stroke-width="1.6" stroke-linecap="round" opacity="0.075"></path><path d="M 125.00 168.50 A 10 10 0 0 1 145.00 168.50" fill="none" stroke="#F4EEE2" stroke-width="1.6" stroke-linecap="round" opacity="0.075"></path><path d="M 155.00 168.50 A 10 10 0 0 1 175.00 168.50" fill="none" stroke="#F4EEE2" stroke-width="1.6" stroke-linecap="round" opacity="0.075"></path></svg>