<svg xmlns="http://www.w3.org/2000/svg" width="80" height="80" viewBox="0 0 80 80"><circle cx="-77.44" cy="-77.19" r="1.58" fill="#F4EEE2" opacity="0.082"></circle><circle cx="-74.89" cy="-65.47" r="1.12" fill="#F4EEE2" opacity="0.054"></circle><circle cx="-74.73" cy="-53.85" r="0.93" fill="#F4EEE2" opacity="0.049"></circle><circle cx="-73.68" cy="-44.91" r="0.88" fill="#F4EEE2" opacity="0.062"></circle><circle cx="-76.03" cy="-34.83" r="0.97" fill="#F4EEE2" opacity="0.099"></circle><circle cx="-76.26" cy="-23.11" r="0.87" fill="#F4EEE2" opacity="0.049"></circle><circle cx="-76.73" cy="-16.05" r="1.19" fill="#F4EEE2" opacity="0.086"></circle><circle cx="-77.13" cy="-2.94" r="1.20" fill="#F4EEE2" opacity="0.077"></circle><circle cx="-64.10" cy="-72.67" r="1.26" fill="#F4EEE2" opacity="0.095"></circle><circle cx="-63.36" cy="-67.30" r="0.86" fill="#F4EEE2" opacity="0.061"></circle><circle cx="-65.37" cy="-57.40" r="0.78" fill="#F4EEE2" opacity="0.086"></circle><circle cx="-65.66" cy="-45.37" r="1.12" fill="#F4EEE2" opacity="0.097"></circle><circle cx="-63.98" cy="-34.06" r="1.00" fill="#F4EEE2" opacity="0.061"></circle><circle cx="-66.81" cy="-26.83" r="1.52" fill="#F4EEE2" opacity="0.059"></circle><circle cx="-66.55" cy="-14.34" r="1.00" fill="#F4EEE2" opacity="0.043"></circle><circle cx="-64.08" cy="-2.89" r="1.19" fill="#F4EEE2" opacity="0.090"></circle><circle cx="-54.22" cy="-72.90" r="0.81" fill="#F4EEE2" opacity="0.072"></circle><circle cx="-54.25" cy="-63.04" r="1.56" fill="#F4EEE2" opacity="0.090"></circle><circle cx="-54.53" cy="-52.68" r="1.57" fill="#F4EEE2" opacity="0.073"></circle><circle cx="-53.41" cy="-47.47" r="1.16" fill="#F4EEE2" opacity="0.060"></circle><circle cx="-53.88" cy="-34.75" r="1.38" fill="#F4EEE2" opacity="0.099"></circle><circle cx="-54.71" cy="-23.38" r="1.09" fill="#F4EEE2" opacity="0.079"></circle><circle cx="-53.81" cy="-14.74" r="0.98" fill="#F4EEE2" opacity="0.054"></circle><circle cx="-57.45" cy="-7.38" r="1.55" fill="#F4EEE2" opacity="0.090"></circle><circle cx="-44.35" cy="-77.43" r="1.26" fill="#F4EEE2" opacity="0.076"></circle><circle cx="-43.92" cy="-62.53" r="0.95" fill="#F4EEE2" opacity="0.099"></circle><circle cx="-44.25" cy="-53.48" r="1.26" fill="#F4EEE2" opacity="0.090"></circle><circle cx="-46.80" cy="-42.53" r="1.16" fill="#F4EEE2" opacity="0.074"></circle><circle cx="-46.70" cy="-35.52" r="0.89" fill="#F4EEE2" opacity="0.089"></circle><circle cx="-43.19" cy="-23.82" r="1.29" fill="#F4EEE2" opacity="0.099"></circle><circle cx="-44.45" cy="-13.82" r="1.56" fill="#F4EEE2" opacity="0.069"></circle><circle cx="-46.35" cy="-4.58" r="1.42" fill="#F4EEE2" opacity="0.091"></circle><circle cx="-36.55" cy="-74.73" r="1.13" fill="#F4EEE2" opacity="0.072"></circle><circle cx="-36.60" cy="-66.25" r="1.10" fill="#F4EEE2" opacity="0.069"></circle><circle cx="-36.65" cy="-57.48" r="0.86" fill="#F4EEE2" opacity="0.041"></circle><circle cx="-36.96" cy="-43.12" r="1.58" fill="#F4EEE2" opacity="0.044"></circle><circle cx="-36.63" cy="-35.47" r="1.15" fill="#F4EEE2" opacity="0.084"></circle><circle cx="-35.66" cy="-25.70" r="1.41" fill="#F4EEE2" opacity="0.083"></circle><circle cx="-33.50" cy="-14.85" r="1.42" fill="#F4EEE2" opacity="0.065"></circle><circle cx="-34.69" cy="-6.04" r="1.17" fill="#F4EEE2" opacity="0.087"></circle><circle cx="-27.10" cy="-76.24" r="1.44" fill="#F4EEE2" opacity="0.090"></circle><circle cx="-23.63" cy="-65.35" r="1.02" fill="#F4EEE2" opacity="0.095"></circle><circle cx="-26.24" cy="-55.69" r="1.13" fill="#F4EEE2" opacity="0.090"></circle><circle cx="-25.48" cy="-42.63" r="1.20" fill="#F4EEE2" opacity="0.066"></circle><circle cx="-25.81" cy="-34.81" r="0.96" fill="#F4EEE2" opacity="0.093"></circle><circle cx="-24.64" cy="-22.57" r="1.46" fill="#F4EEE2" opacity="0.070"></circle><circle cx="-25.32" cy="-14.01" r="1.54" fill="#F4EEE2" opacity="0.073"></circle><circle cx="-24.21" cy="-6.69" r="1.32" fill="#F4EEE2" opacity="0.063"></circle><circle cx="-14.45" cy="-73.22" r="1.05" fill="#F4EEE2" opacity="0.058"></circle><circle cx="-17.05" cy="-64.08" r="1.36" fill="#F4EEE2" opacity="0.098"></circle><circle cx="-15.91" cy="-56.20" r="0.76" fill="#F4EEE2" opacity="0.083"></circle><circle cx="-12.87" cy="-43.58" r="1.45" fill="#F4EEE2" opacity="0.098"></circle><circle cx="-16.37" cy="-32.61" r="0.95" fill="#F4EEE2" opacity="0.072"></circle><circle cx="-15.54" cy="-23.93" r="1.38" fill="#F4EEE2" opacity="0.077"></circle><circle cx="-13.87" cy="-14.39" r="1.23" fill="#F4EEE2" opacity="0.056"></circle><circle cx="-13.34" cy="-5.09" r="0.83" fill="#F4EEE2" opacity="0.083"></circle><circle cx="-5.18" cy="-74.70" r="1.20" fill="#F4EEE2" opacity="0.093"></circle><circle cx="-2.73" cy="-66.73" r="0.79" fill="#F4EEE2" opacity="0.057"></circle><circle cx="-4.88" cy="-55.54" r="1.52" fill="#F4EEE2" opacity="0.091"></circle><circle cx="-4.85" cy="-42.96" r="0.95" fill="#F4EEE2" opacity="0.070"></circle><circle cx="-2.87" cy="-34.12" r="1.42" fill="#F4EEE2" opacity="0.060"></circle><circle cx="-2.95" cy="-22.65" r="1.46" fill="#F4EEE2" opacity="0.040"></circle><circle cx="-6.66" cy="-13.74" r="0.79" fill="#F4EEE2" opacity="0.045"></circle><circle cx="-2.94" cy="-6.14" r="1.23" fill="#F4EEE2" opacity="0.056"></circle><circle cx="-77.44" cy="2.81" r="1.58" fill="#F4EEE2" opacity="0.082"></circle><circle cx="-74.89" cy="14.53" r="1.12" fill="#F4EEE2" opacity="0.054"></circle><circle cx="-74.73" cy="26.15" r="0.93" fill="#F4EEE2" opacity="0.049"></circle><circle cx="-73.68" cy="35.09" r="0.88" fill="#F4EEE2" opacity="0.062"></circle><circle cx="-76.03" cy="45.17" r="0.97" fill="#F4EEE2" opacity="0.099"></circle><circle cx="-76.26" cy="56.89" r="0.87" fill="#F4EEE2" opacity="0.049"></circle><circle cx="-76.73" cy="63.95" r="1.19" fill="#F4EEE2" opacity="0.086"></circle><circle cx="-77.13" cy="77.06" r="1.20" fill="#F4EEE2" opacity="0.077"></circle><circle cx="-64.10" cy="7.33" r="1.26" fill="#F4EEE2" opacity="0.095"></circle><circle cx="-63.36" cy="12.70" r="0.86" fill="#F4EEE2" opacity="0.061"></circle><circle cx="-65.37" cy="22.60" r="0.78" fill="#F4EEE2" opacity="0.086"></circle><circle cx="-65.66" cy="34.63" r="1.12" fill="#F4EEE2" opacity="0.097"></circle><circle cx="-63.98" cy="45.94" r="1.00" fill="#F4EEE2" opacity="0.061"></circle><circle cx="-66.81" cy="53.17" r="1.52" fill="#F4EEE2" opacity="0.059"></circle><circle cx="-66.55" cy="65.66" r="1.00" fill="#F4EEE2" opacity="0.043"></circle><circle cx="-64.08" cy="77.11" r="1.19" fill="#F4EEE2" opacity="0.090"></circle><circle cx="-54.22" cy="7.10" r="0.81" fill="#F4EEE2" opacity="0.072"></circle><circle cx="-54.25" cy="16.96" r="1.56" fill="#F4EEE2" opacity="0.090"></circle><circle cx="-54.53" cy="27.32" r="1.57" fill="#F4EEE2" opacity="0.073"></circle><circle cx="-53.41" cy="32.53" r="1.16" fill="#F4EEE2" opacity="0.060"></circle><circle cx="-53.88" cy="45.25" r="1.38" fill="#F4EEE2" opacity="0.099"></circle><circle cx="-54.71" cy="56.62" r="1.09" fill="#F4EEE2" opacity="0.079"></circle><circle cx="-53.81" cy="65.26" r="0.98" fill="#F4EEE2" opacity="0.054"></circle><circle cx="-57.45" cy="72.62" r="1.55" fill="#F4EEE2" opacity="0.090"></circle><circle cx="-44.35" cy="2.57" r="1.26" fill="#F4EEE2" opacity="0.076"></circle><circle cx="-43.92" cy="17.47" r="0.95" fill="#F4EEE2" opacity="0.099"></circle><circle cx="-44.25" cy="26.52" r="1.26" fill="#F4EEE2" opacity="0.090"></circle><circle cx="-46.80" cy="37.47" r="1.16" fill="#F4EEE2" opacity="0.074"></circle><circle cx="-46.70" cy="44.48" r="0.89" fill="#F4EEE2" opacity="0.089"></circle><circle cx="-43.19" cy="56.18" r="1.29" fill="#F4EEE2" opacity="0.099"></circle><circle cx="-44.45" cy="66.18" r="1.56" fill="#F4EEE2" opacity="0.069"></circle><circle cx="-46.35" cy="75.42" r="1.42" fill="#F4EEE2" opacity="0.091"></circle><circle cx="-36.55" cy="5.27" r="1.13" fill="#F4EEE2" opacity="0.072"></circle><circle cx="-36.60" cy="13.75" r="1.10" fill="#F4EEE2" opacity="0.069"></circle><circle cx="-36.65" cy="22.52" r="0.86" fill="#F4EEE2" opacity="0.041"></circle><circle cx="-36.96" cy="36.88" r="1.58" fill="#F4EEE2" opacity="0.044"></circle><circle cx="-36.63" cy="44.53" r="1.15" fill="#F4EEE2" opacity="0.084"></circle><circle cx="-35.66" cy="54.30" r="1.41" fill="#F4EEE2" opacity="0.083"></circle><circle cx="-33.50" cy="65.15" r="1.42" fill="#F4EEE2" opacity="0.065"></circle><circle cx="-34.69" cy="73.96" r="1.17" fill="#F4EEE2" opacity="0.087"></circle><circle cx="-27.10" cy="3.76" r="1.44" fill="#F4EEE2" opacity="0.090"></circle><circle cx="-23.63" cy="14.65" r="1.02" fill="#F4EEE2" opacity="0.095"></circle><circle cx="-26.24" cy="24.31" r="1.13" fill="#F4EEE2" opacity="0.090"></circle><circle cx="-25.48" cy="37.37" r="1.20" fill="#F4EEE2" opacity="0.066"></circle><circle cx="-25.81" cy="45.19" r="0.96" fill="#F4EEE2" opacity="0.093"></circle><circle cx="-24.64" cy="57.43" r="1.46" fill="#F4EEE2" opacity="0.070"></circle><circle cx="-25.32" cy="65.99" r="1.54" fill="#F4EEE2" opacity="0.073"></circle><circle cx="-24.21" cy="73.31" r="1.32" fill="#F4EEE2" opacity="0.063"></circle><circle cx="-14.45" cy="6.78" r="1.05" fill="#F4EEE2" opacity="0.058"></circle><circle cx="-17.05" cy="15.92" r="1.36" fill="#F4EEE2" opacity="0.098"></circle><circle cx="-15.91" cy="23.80" r="0.76" fill="#F4EEE2" opacity="0.083"></circle><circle cx="-12.87" cy="36.42" r="1.45" fill="#F4EEE2" opacity="0.098"></circle><circle cx="-16.37" cy="47.39" r="0.95" fill="#F4EEE2" opacity="0.072"></circle><circle cx="-15.54" cy="56.07" r="1.38" fill="#F4EEE2" opacity="0.077"></circle><circle cx="-13.87" cy="65.61" r="1.23" fill="#F4EEE2" opacity="0.056"></circle><circle cx="-13.34" cy="74.91" r="0.83" fill="#F4EEE2" opacity="0.083"></circle><circle cx="-5.18" cy="5.30" r="1.20" fill="#F4EEE2" opacity="0.093"></circle><circle cx="-2.73" cy="13.27" r="0.79" fill="#F4EEE2" opacity="0.057"></circle><circle cx="-4.88" cy="24.46" r="1.52" fill="#F4EEE2" opacity="0.091"></circle><circle cx="-4.85" cy="37.04" r="0.95" fill="#F4EEE2" opacity="0.070"></circle><circle cx="-2.87" cy="45.88" r="1.42" fill="#F4EEE2" opacity="0.060"></circle><circle cx="-2.95" cy="57.35" r="1.46" fill="#F4EEE2" opacity="0.040"></circle><circle cx="-6.66" cy="66.26" r="0.79" fill="#F4EEE2" opacity="0.045"></circle><circle cx="-2.94" cy="73.86" r="1.23" fill="#F4EEE2" opacity="0.056"></circle><circle cx="-77.44" cy="82.81" r="1.58" fill="#F4EEE2" opacity="0.082"></circle><circle cx="-74.89" cy="94.53" r="1.12" fill="#F4EEE2" opacity="0.054"></circle><circle cx="-74.73" cy="106.15" r="0.93" fill="#F4EEE2" opacity="0.049"></circle><circle cx="-73.68" cy="115.09" r="0.88" fill="#F4EEE2" opacity="0.062"></circle><circle cx="-76.03" cy="125.17" r="0.97" fill="#F4EEE2" opacity="0.099"></circle><circle cx="-76.26" cy="136.89" r="0.87" fill="#F4EEE2" opacity="0.049"></circle><circle cx="-76.73" cy="143.95" r="1.19" fill="#F4EEE2" opacity="0.086"></circle><circle cx="-77.13" cy="157.06" r="1.20" fill="#F4EEE2" opacity="0.077"></circle><circle cx="-64.10" cy="87.33" r="1.26" fill="#F4EEE2" opacity="0.095"></circle><circle cx="-63.36" cy="92.70" r="0.86" fill="#F4EEE2" opacity="0.061"></circle><circle cx="-65.37" cy="102.60" r="0.78" fill="#F4EEE2" opacity="0.086"></circle><circle cx="-65.66" cy="114.63" r="1.12" fill="#F4EEE2" opacity="0.097"></circle><circle cx="-63.98" cy="125.94" r="1.00" fill="#F4EEE2" opacity="0.061"></circle><circle cx="-66.81" cy="133.17" r="1.52" fill="#F4EEE2" opacity="0.059"></circle><circle cx="-66.55" cy="145.66" r="1.00" fill="#F4EEE2" opacity="0.043"></circle><circle cx="-64.08" cy="157.11" r="1.19" fill="#F4EEE2" opacity="0.090"></circle><circle cx="-54.22" cy="87.10" r="0.81" fill="#F4EEE2" opacity="0.072"></circle><circle cx="-54.25" cy="96.96" r="1.56" fill="#F4EEE2" opacity="0.090"></circle><circle cx="-54.53" cy="107.32" r="1.57" fill="#F4EEE2" opacity="0.073"></circle><circle cx="-53.41" cy="112.53" r="1.16" fill="#F4EEE2" opacity="0.060"></circle><circle cx="-53.88" cy="125.25" r="1.38" fill="#F4EEE2" opacity="0.099"></circle><circle cx="-54.71" cy="136.62" r="1.09" fill="#F4EEE2" opacity="0.079"></circle><circle cx="-53.81" cy="145.26" r="0.98" fill="#F4EEE2" opacity="0.054"></circle><circle cx="-57.45" cy="152.62" r="1.55" fill="#F4EEE2" opacity="0.090"></circle><circle cx="-44.35" cy="82.57" r="1.26" fill="#F4EEE2" opacity="0.076"></circle><circle cx="-43.92" cy="97.47" r="0.95" fill="#F4EEE2" opacity="0.099"></circle><circle cx="-44.25" cy="106.52" r="1.26" fill="#F4EEE2" opacity="0.090"></circle><circle cx="-46.80" cy="117.47" r="1.16" fill="#F4EEE2" opacity="0.074"></circle><circle cx="-46.70" cy="124.48" r="0.89" fill="#F4EEE2" opacity="0.089"></circle><circle cx="-43.19" cy="136.18" r="1.29" fill="#F4EEE2" opacity="0.099"></circle><circle cx="-44.45" cy="146.18" r="1.56" fill="#F4EEE2" opacity="0.069"></circle><circle cx="-46.35" cy="155.42" r="1.42" fill="#F4EEE2" opacity="0.091"></circle><circle cx="-36.55" cy="85.27" r="1.13" fill="#F4EEE2" opacity="0.072"></circle><circle cx="-36.60" cy="93.75" r="1.10" fill="#F4EEE2" opacity="0.069"></circle><circle cx="-36.65" cy="102.52" r="0.86" fill="#F4EEE2" opacity="0.041"></circle><circle cx="-36.96" cy="116.88" r="1.58" fill="#F4EEE2" opacity="0.044"></circle><circle cx="-36.63" cy="124.53" r="1.15" fill="#F4EEE2" opacity="0.084"></circle><circle cx="-35.66" cy="134.30" r="1.41" fill="#F4EEE2" opacity="0.083"></circle><circle cx="-33.50" cy="145.15" r="1.42" fill="#F4EEE2" opacity="0.065"></circle><circle cx="-34.69" cy="153.96" r="1.17" fill="#F4EEE2" opacity="0.087"></circle><circle cx="-27.10" cy="83.76" r="1.44" fill="#F4EEE2" opacity="0.090"></circle><circle cx="-23.63" cy="94.65" r="1.02" fill="#F4EEE2" opacity="0.095"></circle><circle cx="-26.24" cy="104.31" r="1.13" fill="#F4EEE2" opacity="0.090"></circle><circle cx="-25.48" cy="117.37" r="1.20" fill="#F4EEE2" opacity="0.066"></circle><circle cx="-25.81" cy="125.19" r="0.96" fill="#F4EEE2" opacity="0.093"></circle><circle cx="-24.64" cy="137.43" r="1.46" fill="#F4EEE2" opacity="0.070"></circle><circle cx="-25.32" cy="145.99" r="1.54" fill="#F4EEE2" opacity="0.073"></circle><circle cx="-24.21" cy="153.31" r="1.32" fill="#F4EEE2" opacity="0.063"></circle><circle cx="-14.45" cy="86.78" r="1.05" fill="#F4EEE2" opacity="0.058"></circle><circle cx="-17.05" cy="95.92" r="1.36" fill="#F4EEE2" opacity="0.098"></circle><circle cx="-15.91" cy="103.80" r="0.76" fill="#F4EEE2" opacity="0.083"></circle><circle cx="-12.87" cy="116.42" r="1.45" fill="#F4EEE2" opacity="0.098"></circle><circle cx="-16.37" cy="127.39" r="0.95" fill="#F4EEE2" opacity="0.072"></circle><circle cx="-15.54" cy="136.07" r="1.38" fill="#F4EEE2" opacity="0.077"></circle><circle cx="-13.87" cy="145.61" r="1.23" fill="#F4EEE2" opacity="0.056"></circle><circle cx="-13.34" cy="154.91" r="0.83" fill="#F4EEE2" opacity="0.083"></circle><circle cx="-5.18" cy="85.30" r="1.20" fill="#F4EEE2" opacity="0.093"></circle><circle cx="-2.73" cy="93.27" r="0.79" fill="#F4EEE2" opacity="0.057"></circle><circle cx="-4.88" cy="104.46" r="1.52" fill="#F4EEE2" opacity="0.091"></circle><circle cx="-4.85" cy="117.04" r="0.95" fill="#F4EEE2" opacity="0.070"></circle><circle cx="-2.87" cy="125.88" r="1.42" fill="#F4EEE2" opacity="0.060"></circle><circle cx="-2.95" cy="137.35" r="1.46" fill="#F4EEE2" opacity="0.040"></circle><circle cx="-6.66" cy="146.26" r="0.79" fill="#F4EEE2" opacity="0.045"></circle><circle cx="-2.94" cy="153.86" r="1.23" fill="#F4EEE2" opacity="0.056"></circle><circle cx="2.56" cy="-77.19" r="1.58" fill="#F4EEE2" opacity="0.082"></circle><circle cx="5.11" cy="-65.47" r="1.12" fill="#F4EEE2" opacity="0.054"></circle><circle cx="5.27" cy="-53.85" r="0.93" fill="#F4EEE2" opacity="0.049"></circle><circle cx="6.32" cy="-44.91" r="0.88" fill="#F4EEE2" opacity="0.062"></circle><circle cx="3.97" cy="-34.83" r="0.97" fill="#F4EEE2" opacity="0.099"></circle><circle cx="3.74" cy="-23.11" r="0.87" fill="#F4EEE2" opacity="0.049"></circle><circle cx="3.27" cy="-16.05" r="1.19" fill="#F4EEE2" opacity="0.086"></circle><circle cx="2.87" cy="-2.94" r="1.20" fill="#F4EEE2" opacity="0.077"></circle><circle cx="15.90" cy="-72.67" r="1.26" fill="#F4EEE2" opacity="0.095"></circle><circle cx="16.64" cy="-67.30" r="0.86" fill="#F4EEE2" opacity="0.061"></circle><circle cx="14.63" cy="-57.40" r="0.78" fill="#F4EEE2" opacity="0.086"></circle><circle cx="14.34" cy="-45.37" r="1.12" fill="#F4EEE2" opacity="0.097"></circle><circle cx="16.02" cy="-34.06" r="1.00" fill="#F4EEE2" opacity="0.061"></circle><circle cx="13.19" cy="-26.83" r="1.52" fill="#F4EEE2" opacity="0.059"></circle><circle cx="13.45" cy="-14.34" r="1.00" fill="#F4EEE2" opacity="0.043"></circle><circle cx="15.92" cy="-2.89" r="1.19" fill="#F4EEE2" opacity="0.090"></circle><circle cx="25.78" cy="-72.90" r="0.81" fill="#F4EEE2" opacity="0.072"></circle><circle cx="25.75" cy="-63.04" r="1.56" fill="#F4EEE2" opacity="0.090"></circle><circle cx="25.47" cy="-52.68" r="1.57" fill="#F4EEE2" opacity="0.073"></circle><circle cx="26.59" cy="-47.47" r="1.16" fill="#F4EEE2" opacity="0.060"></circle><circle cx="26.12" cy="-34.75" r="1.38" fill="#F4EEE2" opacity="0.099"></circle><circle cx="25.29" cy="-23.38" r="1.09" fill="#F4EEE2" opacity="0.079"></circle><circle cx="26.19" cy="-14.74" r="0.98" fill="#F4EEE2" opacity="0.054"></circle><circle cx="22.55" cy="-7.38" r="1.55" fill="#F4EEE2" opacity="0.090"></circle><circle cx="35.65" cy="-77.43" r="1.26" fill="#F4EEE2" opacity="0.076"></circle><circle cx="36.08" cy="-62.53" r="0.95" fill="#F4EEE2" opacity="0.099"></circle><circle cx="35.75" cy="-53.48" r="1.26" fill="#F4EEE2" opacity="0.090"></circle><circle cx="33.20" cy="-42.53" r="1.16" fill="#F4EEE2" opacity="0.074"></circle><circle cx="33.30" cy="-35.52" r="0.89" fill="#F4EEE2" opacity="0.089"></circle><circle cx="36.81" cy="-23.82" r="1.29" fill="#F4EEE2" opacity="0.099"></circle><circle cx="35.55" cy="-13.82" r="1.56" fill="#F4EEE2" opacity="0.069"></circle><circle cx="33.65" cy="-4.58" r="1.42" fill="#F4EEE2" opacity="0.091"></circle><circle cx="43.45" cy="-74.73" r="1.13" fill="#F4EEE2" opacity="0.072"></circle><circle cx="43.40" cy="-66.25" r="1.10" fill="#F4EEE2" opacity="0.069"></circle><circle cx="43.35" cy="-57.48" r="0.86" fill="#F4EEE2" opacity="0.041"></circle><circle cx="43.04" cy="-43.12" r="1.58" fill="#F4EEE2" opacity="0.044"></circle><circle cx="43.37" cy="-35.47" r="1.15" fill="#F4EEE2" opacity="0.084"></circle><circle cx="44.34" cy="-25.70" r="1.41" fill="#F4EEE2" opacity="0.083"></circle><circle cx="46.50" cy="-14.85" r="1.42" fill="#F4EEE2" opacity="0.065"></circle><circle cx="45.31" cy="-6.04" r="1.17" fill="#F4EEE2" opacity="0.087"></circle><circle cx="52.90" cy="-76.24" r="1.44" fill="#F4EEE2" opacity="0.090"></circle><circle cx="56.37" cy="-65.35" r="1.02" fill="#F4EEE2" opacity="0.095"></circle><circle cx="53.76" cy="-55.69" r="1.13" fill="#F4EEE2" opacity="0.090"></circle><circle cx="54.52" cy="-42.63" r="1.20" fill="#F4EEE2" opacity="0.066"></circle><circle cx="54.19" cy="-34.81" r="0.96" fill="#F4EEE2" opacity="0.093"></circle><circle cx="55.36" cy="-22.57" r="1.46" fill="#F4EEE2" opacity="0.070"></circle><circle cx="54.68" cy="-14.01" r="1.54" fill="#F4EEE2" opacity="0.073"></circle><circle cx="55.79" cy="-6.69" r="1.32" fill="#F4EEE2" opacity="0.063"></circle><circle cx="65.55" cy="-73.22" r="1.05" fill="#F4EEE2" opacity="0.058"></circle><circle cx="62.95" cy="-64.08" r="1.36" fill="#F4EEE2" opacity="0.098"></circle><circle cx="64.09" cy="-56.20" r="0.76" fill="#F4EEE2" opacity="0.083"></circle><circle cx="67.13" cy="-43.58" r="1.45" fill="#F4EEE2" opacity="0.098"></circle><circle cx="63.63" cy="-32.61" r="0.95" fill="#F4EEE2" opacity="0.072"></circle><circle cx="64.46" cy="-23.93" r="1.38" fill="#F4EEE2" opacity="0.077"></circle><circle cx="66.13" cy="-14.39" r="1.23" fill="#F4EEE2" opacity="0.056"></circle><circle cx="66.66" cy="-5.09" r="0.83" fill="#F4EEE2" opacity="0.083"></circle><circle cx="74.82" cy="-74.70" r="1.20" fill="#F4EEE2" opacity="0.093"></circle><circle cx="77.27" cy="-66.73" r="0.79" fill="#F4EEE2" opacity="0.057"></circle><circle cx="75.12" cy="-55.54" r="1.52" fill="#F4EEE2" opacity="0.091"></circle><circle cx="75.15" cy="-42.96" r="0.95" fill="#F4EEE2" opacity="0.070"></circle><circle cx="77.13" cy="-34.12" r="1.42" fill="#F4EEE2" opacity="0.060"></circle><circle cx="77.05" cy="-22.65" r="1.46" fill="#F4EEE2" opacity="0.040"></circle><circle cx="73.34" cy="-13.74" r="0.79" fill="#F4EEE2" opacity="0.045"></circle><circle cx="77.06" cy="-6.14" r="1.23" fill="#F4EEE2" opacity="0.056"></circle><circle cx="2.56" cy="2.81" r="1.58" fill="#F4EEE2" opacity="0.082"></circle><circle cx="5.11" cy="14.53" r="1.12" fill="#F4EEE2" opacity="0.054"></circle><circle cx="5.27" cy="26.15" r="0.93" fill="#F4EEE2" opacity="0.049"></circle><circle cx="6.32" cy="35.09" r="0.88" fill="#F4EEE2" opacity="0.062"></circle><circle cx="3.97" cy="45.17" r="0.97" fill="#F4EEE2" opacity="0.099"></circle><circle cx="3.74" cy="56.89" r="0.87" fill="#F4EEE2" opacity="0.049"></circle><circle cx="3.27" cy="63.95" r="1.19" fill="#F4EEE2" opacity="0.086"></circle><circle cx="2.87" cy="77.06" r="1.20" fill="#F4EEE2" opacity="0.077"></circle><circle cx="15.90" cy="7.33" r="1.26" fill="#F4EEE2" opacity="0.095"></circle><circle cx="16.64" cy="12.70" r="0.86" fill="#F4EEE2" opacity="0.061"></circle><circle cx="14.63" cy="22.60" r="0.78" fill="#F4EEE2" opacity="0.086"></circle><circle cx="14.34" cy="34.63" r="1.12" fill="#F4EEE2" opacity="0.097"></circle><circle cx="16.02" cy="45.94" r="1.00" fill="#F4EEE2" opacity="0.061"></circle><circle cx="13.19" cy="53.17" r="1.52" fill="#F4EEE2" opacity="0.059"></circle><circle cx="13.45" cy="65.66" r="1.00" fill="#F4EEE2" opacity="0.043"></circle><circle cx="15.92" cy="77.11" r="1.19" fill="#F4EEE2" opacity="0.090"></circle><circle cx="25.78" cy="7.10" r="0.81" fill="#F4EEE2" opacity="0.072"></circle><circle cx="25.75" cy="16.96" r="1.56" fill="#F4EEE2" opacity="0.090"></circle><circle cx="25.47" cy="27.32" r="1.57" fill="#F4EEE2" opacity="0.073"></circle><circle cx="26.59" cy="32.53" r="1.16" fill="#F4EEE2" opacity="0.060"></circle><circle cx="26.12" cy="45.25" r="1.38" fill="#F4EEE2" opacity="0.099"></circle><circle cx="25.29" cy="56.62" r="1.09" fill="#F4EEE2" opacity="0.079"></circle><circle cx="26.19" cy="65.26" r="0.98" fill="#F4EEE2" opacity="0.054"></circle><circle cx="22.55" cy="72.62" r="1.55" fill="#F4EEE2" opacity="0.090"></circle><circle cx="35.65" cy="2.57" r="1.26" fill="#F4EEE2" opacity="0.076"></circle><circle cx="36.08" cy="17.47" r="0.95" fill="#F4EEE2" opacity="0.099"></circle><circle cx="35.75" cy="26.52" r="1.26" fill="#F4EEE2" opacity="0.090"></circle><circle cx="33.20" cy="37.47" r="1.16" fill="#F4EEE2" opacity="0.074"></circle><circle cx="33.30" cy="44.48" r="0.89" fill="#F4EEE2" opacity="0.089"></circle><circle cx="36.81" cy="56.18" r="1.29" fill="#F4EEE2" opacity="0.099"></circle><circle cx="35.55" cy="66.18" r="1.56" fill="#F4EEE2" opacity="0.069"></circle><circle cx="33.65" cy="75.42" r="1.42" fill="#F4EEE2" opacity="0.091"></circle><circle cx="43.45" cy="5.27" r="1.13" fill="#F4EEE2" opacity="0.072"></circle><circle cx="43.40" cy="13.75" r="1.10" fill="#F4EEE2" opacity="0.069"></circle><circle cx="43.35" cy="22.52" r="0.86" fill="#F4EEE2" opacity="0.041"></circle><circle cx="43.04" cy="36.88" r="1.58" fill="#F4EEE2" opacity="0.044"></circle><circle cx="43.37" cy="44.53" r="1.15" fill="#F4EEE2" opacity="0.084"></circle><circle cx="44.34" cy="54.30" r="1.41" fill="#F4EEE2" opacity="0.083"></circle><circle cx="46.50" cy="65.15" r="1.42" fill="#F4EEE2" opacity="0.065"></circle><circle cx="45.31" cy="73.96" r="1.17" fill="#F4EEE2" opacity="0.087"></circle><circle cx="52.90" cy="3.76" r="1.44" fill="#F4EEE2" opacity="0.090"></circle><circle cx="56.37" cy="14.65" r="1.02" fill="#F4EEE2" opacity="0.095"></circle><circle cx="53.76" cy="24.31" r="1.13" fill="#F4EEE2" opacity="0.090"></circle><circle cx="54.52" cy="37.37" r="1.20" fill="#F4EEE2" opacity="0.066"></circle><circle cx="54.19" cy="45.19" r="0.96" fill="#F4EEE2" opacity="0.093"></circle><circle cx="55.36" cy="57.43" r="1.46" fill="#F4EEE2" opacity="0.070"></circle><circle cx="54.68" cy="65.99" r="1.54" fill="#F4EEE2" opacity="0.073"></circle><circle cx="55.79" cy="73.31" r="1.32" fill="#F4EEE2" opacity="0.063"></circle><circle cx="65.55" cy="6.78" r="1.05" fill="#F4EEE2" opacity="0.058"></circle><circle cx="62.95" cy="15.92" r="1.36" fill="#F4EEE2" opacity="0.098"></circle><circle cx="64.09" cy="23.80" r="0.76" fill="#F4EEE2" opacity="0.083"></circle><circle cx="67.13" cy="36.42" r="1.45" fill="#F4EEE2" opacity="0.098"></circle><circle cx="63.63" cy="47.39" r="0.95" fill="#F4EEE2" opacity="0.072"></circle><circle cx="64.46" cy="56.07" r="1.38" fill="#F4EEE2" opacity="0.077"></circle><circle cx="66.13" cy="65.61" r="1.23" fill="#F4EEE2" opacity="0.056"></circle><circle cx="66.66" cy="74.91" r="0.83" fill="#F4EEE2" opacity="0.083"></circle><circle cx="74.82" cy="5.30" r="1.20" fill="#F4EEE2" opacity="0.093"></circle><circle cx="77.27" cy="13.27" r="0.79" fill="#F4EEE2" opacity="0.057"></circle><circle cx="75.12" cy="24.46" r="1.52" fill="#F4EEE2" opacity="0.091"></circle><circle cx="75.15" cy="37.04" r="0.95" fill="#F4EEE2" opacity="0.070"></circle><circle cx="77.13" cy="45.88" r="1.42" fill="#F4EEE2" opacity="0.060"></circle><circle cx="77.05" cy="57.35" r="1.46" fill="#F4EEE2" opacity="0.040"></circle><circle cx="73.34" cy="66.26" r="0.79" fill="#F4EEE2" opacity="0.045"></circle><circle cx="77.06" cy="73.86" r="1.23" fill="#F4EEE2" opacity="0.056"></circle><circle cx="2.56" cy="82.81" r="1.58" fill="#F4EEE2" opacity="0.082"></circle><circle cx="5.11" cy="94.53" r="1.12" fill="#F4EEE2" opacity="0.054"></circle><circle cx="5.27" cy="106.15" r="0.93" fill="#F4EEE2" opacity="0.049"></circle><circle cx="6.32" cy="115.09" r="0.88" fill="#F4EEE2" opacity="0.062"></circle><circle cx="3.97" cy="125.17" r="0.97" fill="#F4EEE2" opacity="0.099"></circle><circle cx="3.74" cy="136.89" r="0.87" fill="#F4EEE2" opacity="0.049"></circle><circle cx="3.27" cy="143.95" r="1.19" fill="#F4EEE2" opacity="0.086"></circle><circle cx="2.87" cy="157.06" r="1.20" fill="#F4EEE2" opacity="0.077"></circle><circle cx="15.90" cy="87.33" r="1.26" fill="#F4EEE2" opacity="0.095"></circle><circle cx="16.64" cy="92.70" r="0.86" fill="#F4EEE2" opacity="0.061"></circle><circle cx="14.63" cy="102.60" r="0.78" fill="#F4EEE2" opacity="0.086"></circle><circle cx="14.34" cy="114.63" r="1.12" fill="#F4EEE2" opacity="0.097"></circle><circle cx="16.02" cy="125.94" r="1.00" fill="#F4EEE2" opacity="0.061"></circle><circle cx="13.19" cy="133.17" r="1.52" fill="#F4EEE2" opacity="0.059"></circle><circle cx="13.45" cy="145.66" r="1.00" fill="#F4EEE2" opacity="0.043"></circle><circle cx="15.92" cy="157.11" r="1.19" fill="#F4EEE2" opacity="0.090"></circle><circle cx="25.78" cy="87.10" r="0.81" fill="#F4EEE2" opacity="0.072"></circle><circle cx="25.75" cy="96.96" r="1.56" fill="#F4EEE2" opacity="0.090"></circle><circle cx="25.47" cy="107.32" r="1.57" fill="#F4EEE2" opacity="0.073"></circle><circle cx="26.59" cy="112.53" r="1.16" fill="#F4EEE2" opacity="0.060"></circle><circle cx="26.12" cy="125.25" r="1.38" fill="#F4EEE2" opacity="0.099"></circle><circle cx="25.29" cy="136.62" r="1.09" fill="#F4EEE2" opacity="0.079"></circle><circle cx="26.19" cy="145.26" r="0.98" fill="#F4EEE2" opacity="0.054"></circle><circle cx="22.55" cy="152.62" r="1.55" fill="#F4EEE2" opacity="0.090"></circle><circle cx="35.65" cy="82.57" r="1.26" fill="#F4EEE2" opacity="0.076"></circle><circle cx="36.08" cy="97.47" r="0.95" fill="#F4EEE2" opacity="0.099"></circle><circle cx="35.75" cy="106.52" r="1.26" fill="#F4EEE2" opacity="0.090"></circle><circle cx="33.20" cy="117.47" r="1.16" fill="#F4EEE2" opacity="0.074"></circle><circle cx="33.30" cy="124.48" r="0.89" fill="#F4EEE2" opacity="0.089"></circle><circle cx="36.81" cy="136.18" r="1.29" fill="#F4EEE2" opacity="0.099"></circle><circle cx="35.55" cy="146.18" r="1.56" fill="#F4EEE2" opacity="0.069"></circle><circle cx="33.65" cy="155.42" r="1.42" fill="#F4EEE2" opacity="0.091"></circle><circle cx="43.45" cy="85.27" r="1.13" fill="#F4EEE2" opacity="0.072"></circle><circle cx="43.40" cy="93.75" r="1.10" fill="#F4EEE2" opacity="0.069"></circle><circle cx="43.35" cy="102.52" r="0.86" fill="#F4EEE2" opacity="0.041"></circle><circle cx="43.04" cy="116.88" r="1.58" fill="#F4EEE2" opacity="0.044"></circle><circle cx="43.37" cy="124.53" r="1.15" fill="#F4EEE2" opacity="0.084"></circle><circle cx="44.34" cy="134.30" r="1.41" fill="#F4EEE2" opacity="0.083"></circle><circle cx="46.50" cy="145.15" r="1.42" fill="#F4EEE2" opacity="0.065"></circle><circle cx="45.31" cy="153.96" r="1.17" fill="#F4EEE2" opacity="0.087"></circle><circle cx="52.90" cy="83.76" r="1.44" fill="#F4EEE2" opacity="0.090"></circle><circle cx="56.37" cy="94.65" r="1.02" fill="#F4EEE2" opacity="0.095"></circle><circle cx="53.76" cy="104.31" r="1.13" fill="#F4EEE2" opacity="0.090"></circle><circle cx="54.52" cy="117.37" r="1.20" fill="#F4EEE2" opacity="0.066"></circle><circle cx="54.19" cy="125.19" r="0.96" fill="#F4EEE2" opacity="0.093"></circle><circle cx="55.36" cy="137.43" r="1.46" fill="#F4EEE2" opacity="0.070"></circle><circle cx="54.68" cy="145.99" r="1.54" fill="#F4EEE2" opacity="0.073"></circle><circle cx="55.79" cy="153.31" r="1.32" fill="#F4EEE2" opacity="0.063"></circle><circle cx="65.55" cy="86.78" r="1.05" fill="#F4EEE2" opacity="0.058"></circle><circle cx="62.95" cy="95.92" r="1.36" fill="#F4EEE2" opacity="0.098"></circle><circle cx="64.09" cy="103.80" r="0.76" fill="#F4EEE2" opacity="0.083"></circle><circle cx="67.13" cy="116.42" r="1.45" fill="#F4EEE2" opacity="0.098"></circle><circle cx="63.63" cy="127.39" r="0.95" fill="#F4EEE2" opacity="0.072"></circle><circle cx="64.46" cy="136.07" r="1.38" fill="#F4EEE2" opacity="0.077"></circle><circle cx="66.13" cy="145.61" r="1.23" fill="#F4EEE2" opacity="0.056"></circle><circle cx="66.66" cy="154.91" r="0.83" fill="#F4EEE2" opacity="0.083"></circle><circle cx="74.82" cy="85.30" r="1.20" fill="#F4EEE2" opacity="0.093"></circle><circle cx="77.27" cy="93.27" r="0.79" fill="#F4EEE2" opacity="0.057"></circle><circle cx="75.12" cy="104.46" r="1.52" fill="#F4EEE2" opacity="0.091"></circle><circle cx="75.15" cy="117.04" r="0.95" fill="#F4EEE2" opacity="0.070"></circle><circle cx="77.13" cy="125.88" r="1.42" fill="#F4EEE2" opacity="0.060"></circle><circle cx="77.05" cy="137.35" r="1.46" fill="#F4EEE2" opacity="0.040"></circle><circle cx="73.34" cy="146.26" r="0.79" fill="#F4EEE2" opacity="0.045"></circle><circle cx="77.06" cy="153.86" r="1.23" fill="#F4EEE2" opacity="0.056"></circle><circle cx="82.56" cy="-77.19" r="1.58" fill="#F4EEE2" opacity="0.082"></circle><circle cx="85.11" cy="-65.47" r="1.12" fill="#F4EEE2" opacity="0.054"></circle><circle cx="85.27" cy="-53.85" r="0.93" fill="#F4EEE2" opacity="0.049"></circle><circle cx="86.32" cy="-44.91" r="0.88" fill="#F4EEE2" opacity="0.062"></circle><circle cx="83.97" cy="-34.83" r="0.97" fill="#F4EEE2" opacity="0.099"></circle><circle cx="83.74" cy="-23.11" r="0.87" fill="#F4EEE2" opacity="0.049"></circle><circle cx="83.27" cy="-16.05" r="1.19" fill="#F4EEE2" opacity="0.086"></circle><circle cx="82.87" cy="-2.94" r="1.20" fill="#F4EEE2" opacity="0.077"></circle><circle cx="95.90" cy="-72.67" r="1.26" fill="#F4EEE2" opacity="0.095"></circle><circle cx="96.64" cy="-67.30" r="0.86" fill="#F4EEE2" opacity="0.061"></circle><circle cx="94.63" cy="-57.40" r="0.78" fill="#F4EEE2" opacity="0.086"></circle><circle cx="94.34" cy="-45.37" r="1.12" fill="#F4EEE2" opacity="0.097"></circle><circle cx="96.02" cy="-34.06" r="1.00" fill="#F4EEE2" opacity="0.061"></circle><circle cx="93.19" cy="-26.83" r="1.52" fill="#F4EEE2" opacity="0.059"></circle><circle cx="93.45" cy="-14.34" r="1.00" fill="#F4EEE2" opacity="0.043"></circle><circle cx="95.92" cy="-2.89" r="1.19" fill="#F4EEE2" opacity="0.090"></circle><circle cx="105.78" cy="-72.90" r="0.81" fill="#F4EEE2" opacity="0.072"></circle><circle cx="105.75" cy="-63.04" r="1.56" fill="#F4EEE2" opacity="0.090"></circle><circle cx="105.47" cy="-52.68" r="1.57" fill="#F4EEE2" opacity="0.073"></circle><circle cx="106.59" cy="-47.47" r="1.16" fill="#F4EEE2" opacity="0.060"></circle><circle cx="106.12" cy="-34.75" r="1.38" fill="#F4EEE2" opacity="0.099"></circle><circle cx="105.29" cy="-23.38" r="1.09" fill="#F4EEE2" opacity="0.079"></circle><circle cx="106.19" cy="-14.74" r="0.98" fill="#F4EEE2" opacity="0.054"></circle><circle cx="102.55" cy="-7.38" r="1.55" fill="#F4EEE2" opacity="0.090"></circle><circle cx="115.65" cy="-77.43" r="1.26" fill="#F4EEE2" opacity="0.076"></circle><circle cx="116.08" cy="-62.53" r="0.95" fill="#F4EEE2" opacity="0.099"></circle><circle cx="115.75" cy="-53.48" r="1.26" fill="#F4EEE2" opacity="0.090"></circle><circle cx="113.20" cy="-42.53" r="1.16" fill="#F4EEE2" opacity="0.074"></circle><circle cx="113.30" cy="-35.52" r="0.89" fill="#F4EEE2" opacity="0.089"></circle><circle cx="116.81" cy="-23.82" r="1.29" fill="#F4EEE2" opacity="0.099"></circle><circle cx="115.55" cy="-13.82" r="1.56" fill="#F4EEE2" opacity="0.069"></circle><circle cx="113.65" cy="-4.58" r="1.42" fill="#F4EEE2" opacity="0.091"></circle><circle cx="123.45" cy="-74.73" r="1.13" fill="#F4EEE2" opacity="0.072"></circle><circle cx="123.40" cy="-66.25" r="1.10" fill="#F4EEE2" opacity="0.069"></circle><circle cx="123.35" cy="-57.48" r="0.86" fill="#F4EEE2" opacity="0.041"></circle><circle cx="123.04" cy="-43.12" r="1.58" fill="#F4EEE2" opacity="0.044"></circle><circle cx="123.37" cy="-35.47" r="1.15" fill="#F4EEE2" opacity="0.084"></circle><circle cx="124.34" cy="-25.70" r="1.41" fill="#F4EEE2" opacity="0.083"></circle><circle cx="126.50" cy="-14.85" r="1.42" fill="#F4EEE2" opacity="0.065"></circle><circle cx="125.31" cy="-6.04" r="1.17" fill="#F4EEE2" opacity="0.087"></circle><circle cx="132.90" cy="-76.24" r="1.44" fill="#F4EEE2" opacity="0.090"></circle><circle cx="136.37" cy="-65.35" r="1.02" fill="#F4EEE2" opacity="0.095"></circle><circle cx="133.76" cy="-55.69" r="1.13" fill="#F4EEE2" opacity="0.090"></circle><circle cx="134.52" cy="-42.63" r="1.20" fill="#F4EEE2" opacity="0.066"></circle><circle cx="134.19" cy="-34.81" r="0.96" fill="#F4EEE2" opacity="0.093"></circle><circle cx="135.36" cy="-22.57" r="1.46" fill="#F4EEE2" opacity="0.070"></circle><circle cx="134.68" cy="-14.01" r="1.54" fill="#F4EEE2" opacity="0.073"></circle><circle cx="135.79" cy="-6.69" r="1.32" fill="#F4EEE2" opacity="0.063"></circle><circle cx="145.55" cy="-73.22" r="1.05" fill="#F4EEE2" opacity="0.058"></circle><circle cx="142.95" cy="-64.08" r="1.36" fill="#F4EEE2" opacity="0.098"></circle><circle cx="144.09" cy="-56.20" r="0.76" fill="#F4EEE2" opacity="0.083"></circle><circle cx="147.13" cy="-43.58" r="1.45" fill="#F4EEE2" opacity="0.098"></circle><circle cx="143.63" cy="-32.61" r="0.95" fill="#F4EEE2" opacity="0.072"></circle><circle cx="144.46" cy="-23.93" r="1.38" fill="#F4EEE2" opacity="0.077"></circle><circle cx="146.13" cy="-14.39" r="1.23" fill="#F4EEE2" opacity="0.056"></circle><circle cx="146.66" cy="-5.09" r="0.83" fill="#F4EEE2" opacity="0.083"></circle><circle cx="154.82" cy="-74.70" r="1.20" fill="#F4EEE2" opacity="0.093"></circle><circle cx="157.27" cy="-66.73" r="0.79" fill="#F4EEE2" opacity="0.057"></circle><circle cx="155.12" cy="-55.54" r="1.52" fill="#F4EEE2" opacity="0.091"></circle><circle cx="155.15" cy="-42.96" r="0.95" fill="#F4EEE2" opacity="0.070"></circle><circle cx="157.13" cy="-34.12" r="1.42" fill="#F4EEE2" opacity="0.060"></circle><circle cx="157.05" cy="-22.65" r="1.46" fill="#F4EEE2" opacity="0.040"></circle><circle cx="153.34" cy="-13.74" r="0.79" fill="#F4EEE2" opacity="0.045"></circle><circle cx="157.06" cy="-6.14" r="1.23" fill="#F4EEE2" opacity="0.056"></circle><circle cx="82.56" cy="2.81" r="1.58" fill="#F4EEE2" opacity="0.082"></circle><circle cx="85.11" cy="14.53" r="1.12" fill="#F4EEE2" opacity="0.054"></circle><circle cx="85.27" cy="26.15" r="0.93" fill="#F4EEE2" opacity="0.049"></circle><circle cx="86.32" cy="35.09" r="0.88" fill="#F4EEE2" opacity="0.062"></circle><circle cx="83.97" cy="45.17" r="0.97" fill="#F4EEE2" opacity="0.099"></circle><circle cx="83.74" cy="56.89" r="0.87" fill="#F4EEE2" opacity="0.049"></circle><circle cx="83.27" cy="63.95" r="1.19" fill="#F4EEE2" opacity="0.086"></circle><circle cx="82.87" cy="77.06" r="1.20" fill="#F4EEE2" opacity="0.077"></circle><circle cx="95.90" cy="7.33" r="1.26" fill="#F4EEE2" opacity="0.095"></circle><circle cx="96.64" cy="12.70" r="0.86" fill="#F4EEE2" opacity="0.061"></circle><circle cx="94.63" cy="22.60" r="0.78" fill="#F4EEE2" opacity="0.086"></circle><circle cx="94.34" cy="34.63" r="1.12" fill="#F4EEE2" opacity="0.097"></circle><circle cx="96.02" cy="45.94" r="1.00" fill="#F4EEE2" opacity="0.061"></circle><circle cx="93.19" cy="53.17" r="1.52" fill="#F4EEE2" opacity="0.059"></circle><circle cx="93.45" cy="65.66" r="1.00" fill="#F4EEE2" opacity="0.043"></circle><circle cx="95.92" cy="77.11" r="1.19" fill="#F4EEE2" opacity="0.090"></circle><circle cx="105.78" cy="7.10" r="0.81" fill="#F4EEE2" opacity="0.072"></circle><circle cx="105.75" cy="16.96" r="1.56" fill="#F4EEE2" opacity="0.090"></circle><circle cx="105.47" cy="27.32" r="1.57" fill="#F4EEE2" opacity="0.073"></circle><circle cx="106.59" cy="32.53" r="1.16" fill="#F4EEE2" opacity="0.060"></circle><circle cx="106.12" cy="45.25" r="1.38" fill="#F4EEE2" opacity="0.099"></circle><circle cx="105.29" cy="56.62" r="1.09" fill="#F4EEE2" opacity="0.079"></circle><circle cx="106.19" cy="65.26" r="0.98" fill="#F4EEE2" opacity="0.054"></circle><circle cx="102.55" cy="72.62" r="1.55" fill="#F4EEE2" opacity="0.090"></circle><circle cx="115.65" cy="2.57" r="1.26" fill="#F4EEE2" opacity="0.076"></circle><circle cx="116.08" cy="17.47" r="0.95" fill="#F4EEE2" opacity="0.099"></circle><circle cx="115.75" cy="26.52" r="1.26" fill="#F4EEE2" opacity="0.090"></circle><circle cx="113.20" cy="37.47" r="1.16" fill="#F4EEE2" opacity="0.074"></circle><circle cx="113.30" cy="44.48" r="0.89" fill="#F4EEE2" opacity="0.089"></circle><circle cx="116.81" cy="56.18" r="1.29" fill="#F4EEE2" opacity="0.099"></circle><circle cx="115.55" cy="66.18" r="1.56" fill="#F4EEE2" opacity="0.069"></circle><circle cx="113.65" cy="75.42" r="1.42" fill="#F4EEE2" opacity="0.091"></circle><circle cx="123.45" cy="5.27" r="1.13" fill="#F4EEE2" opacity="0.072"></circle><circle cx="123.40" cy="13.75" r="1.10" fill="#F4EEE2" opacity="0.069"></circle><circle cx="123.35" cy="22.52" r="0.86" fill="#F4EEE2" opacity="0.041"></circle><circle cx="123.04" cy="36.88" r="1.58" fill="#F4EEE2" opacity="0.044"></circle><circle cx="123.37" cy="44.53" r="1.15" fill="#F4EEE2" opacity="0.084"></circle><circle cx="124.34" cy="54.30" r="1.41" fill="#F4EEE2" opacity="0.083"></circle><circle cx="126.50" cy="65.15" r="1.42" fill="#F4EEE2" opacity="0.065"></circle><circle cx="125.31" cy="73.96" r="1.17" fill="#F4EEE2" opacity="0.087"></circle><circle cx="132.90" cy="3.76" r="1.44" fill="#F4EEE2" opacity="0.090"></circle><circle cx="136.37" cy="14.65" r="1.02" fill="#F4EEE2" opacity="0.095"></circle><circle cx="133.76" cy="24.31" r="1.13" fill="#F4EEE2" opacity="0.090"></circle><circle cx="134.52" cy="37.37" r="1.20" fill="#F4EEE2" opacity="0.066"></circle><circle cx="134.19" cy="45.19" r="0.96" fill="#F4EEE2" opacity="0.093"></circle><circle cx="135.36" cy="57.43" r="1.46" fill="#F4EEE2" opacity="0.070"></circle><circle cx="134.68" cy="65.99" r="1.54" fill="#F4EEE2" opacity="0.073"></circle><circle cx="135.79" cy="73.31" r="1.32" fill="#F4EEE2" opacity="0.063"></circle><circle cx="145.55" cy="6.78" r="1.05" fill="#F4EEE2" opacity="0.058"></circle><circle cx="142.95" cy="15.92" r="1.36" fill="#F4EEE2" opacity="0.098"></circle><circle cx="144.09" cy="23.80" r="0.76" fill="#F4EEE2" opacity="0.083"></circle><circle cx="147.13" cy="36.42" r="1.45" fill="#F4EEE2" opacity="0.098"></circle><circle cx="143.63" cy="47.39" r="0.95" fill="#F4EEE2" opacity="0.072"></circle><circle cx="144.46" cy="56.07" r="1.38" fill="#F4EEE2" opacity="0.077"></circle><circle cx="146.13" cy="65.61" r="1.23" fill="#F4EEE2" opacity="0.056"></circle><circle cx="146.66" cy="74.91" r="0.83" fill="#F4EEE2" opacity="0.083"></circle><circle cx="154.82" cy="5.30" r="1.20" fill="#F4EEE2" opacity="0.093"></circle><circle cx="157.27" cy="13.27" r="0.79" fill="#F4EEE2" opacity="0.057"></circle><circle cx="155.12" cy="24.46" r="1.52" fill="#F4EEE2" opacity="0.091"></circle><circle cx="155.15" cy="37.04" r="0.95" fill="#F4EEE2" opacity="0.070"></circle><circle cx="157.13" cy="45.88" r="1.42" fill="#F4EEE2" opacity="0.060"></circle><circle cx="157.05" cy="57.35" r="1.46" fill="#F4EEE2" opacity="0.040"></circle><circle cx="153.34" cy="66.26" r="0.79" fill="#F4EEE2" opacity="0.045"></circle><circle cx="157.06" cy="73.86" r="1.23" fill="#F4EEE2" opacity="0.056"></circle><circle cx="82.56" cy="82.81" r="1.58" fill="#F4EEE2" opacity="0.082"></circle><circle cx="85.11" cy="94.53" r="1.12" fill="#F4EEE2" opacity="0.054"></circle><circle cx="85.27" cy="106.15" r="0.93" fill="#F4EEE2" opacity="0.049"></circle><circle cx="86.32" cy="115.09" r="0.88" fill="#F4EEE2" opacity="0.062"></circle><circle cx="83.97" cy="125.17" r="0.97" fill="#F4EEE2" opacity="0.099"></circle><circle cx="83.74" cy="136.89" r="0.87" fill="#F4EEE2" opacity="0.049"></circle><circle cx="83.27" cy="143.95" r="1.19" fill="#F4EEE2" opacity="0.086"></circle><circle cx="82.87" cy="157.06" r="1.20" fill="#F4EEE2" opacity="0.077"></circle><circle cx="95.90" cy="87.33" r="1.26" fill="#F4EEE2" opacity="0.095"></circle><circle cx="96.64" cy="92.70" r="0.86" fill="#F4EEE2" opacity="0.061"></circle><circle cx="94.63" cy="102.60" r="0.78" fill="#F4EEE2" opacity="0.086"></circle><circle cx="94.34" cy="114.63" r="1.12" fill="#F4EEE2" opacity="0.097"></circle><circle cx="96.02" cy="125.94" r="1.00" fill="#F4EEE2" opacity="0.061"></circle><circle cx="93.19" cy="133.17" r="1.52" fill="#F4EEE2" opacity="0.059"></circle><circle cx="93.45" cy="145.66" r="1.00" fill="#F4EEE2" opacity="0.043"></circle><circle cx="95.92" cy="157.11" r="1.19" fill="#F4EEE2" opacity="0.090"></circle><circle cx="105.78" cy="87.10" r="0.81" fill="#F4EEE2" opacity="0.072"></circle><circle cx="105.75" cy="96.96" r="1.56" fill="#F4EEE2" opacity="0.090"></circle><circle cx="105.47" cy="107.32" r="1.57" fill="#F4EEE2" opacity="0.073"></circle><circle cx="106.59" cy="112.53" r="1.16" fill="#F4EEE2" opacity="0.060"></circle><circle cx="106.12" cy="125.25" r="1.38" fill="#F4EEE2" opacity="0.099"></circle><circle cx="105.29" cy="136.62" r="1.09" fill="#F4EEE2" opacity="0.079"></circle><circle cx="106.19" cy="145.26" r="0.98" fill="#F4EEE2" opacity="0.054"></circle><circle cx="102.55" cy="152.62" r="1.55" fill="#F4EEE2" opacity="0.090"></circle><circle cx="115.65" cy="82.57" r="1.26" fill="#F4EEE2" opacity="0.076"></circle><circle cx="116.08" cy="97.47" r="0.95" fill="#F4EEE2" opacity="0.099"></circle><circle cx="115.75" cy="106.52" r="1.26" fill="#F4EEE2" opacity="0.090"></circle><circle cx="113.20" cy="117.47" r="1.16" fill="#F4EEE2" opacity="0.074"></circle><circle cx="113.30" cy="124.48" r="0.89" fill="#F4EEE2" opacity="0.089"></circle><circle cx="116.81" cy="136.18" r="1.29" fill="#F4EEE2" opacity="0.099"></circle><circle cx="115.55" cy="146.18" r="1.56" fill="#F4EEE2" opacity="0.069"></circle><circle cx="113.65" cy="155.42" r="1.42" fill="#F4EEE2" opacity="0.091"></circle><circle cx="123.45" cy="85.27" r="1.13" fill="#F4EEE2" opacity="0.072"></circle><circle cx="123.40" cy="93.75" r="1.10" fill="#F4EEE2" opacity="0.069"></circle><circle cx="123.35" cy="102.52" r="0.86" fill="#F4EEE2" opacity="0.041"></circle><circle cx="123.04" cy="116.88" r="1.58" fill="#F4EEE2" opacity="0.044"></circle><circle cx="123.37" cy="124.53" r="1.15" fill="#F4EEE2" opacity="0.084"></circle><circle cx="124.34" cy="134.30" r="1.41" fill="#F4EEE2" opacity="0.083"></circle><circle cx="126.50" cy="145.15" r="1.42" fill="#F4EEE2" opacity="0.065"></circle><circle cx="125.31" cy="153.96" r="1.17" fill="#F4EEE2" opacity="0.087"></circle><circle cx="132.90" cy="83.76" r="1.44" fill="#F4EEE2" opacity="0.090"></circle><circle cx="136.37" cy="94.65" r="1.02" fill="#F4EEE2" opacity="0.095"></circle><circle cx="133.76" cy="104.31" r="1.13" fill="#F4EEE2" opacity="0.090"></circle><circle cx="134.52" cy="117.37" r="1.20" fill="#F4EEE2" opacity="0.066"></circle><circle cx="134.19" cy="125.19" r="0.96" fill="#F4EEE2" opacity="0.093"></circle><circle cx="135.36" cy="137.43" r="1.46" fill="#F4EEE2" opacity="0.070"></circle><circle cx="134.68" cy="145.99" r="1.54" fill="#F4EEE2" opacity="0.073"></circle><circle cx="135.79" cy="153.31" r="1.32" fill="#F4EEE2" opacity="0.063"></circle><circle cx="145.55" cy="86.78" r="1.05" fill="#F4EEE2" opacity="0.058"></circle><circle cx="142.95" cy="95.92" r="1.36" fill="#F4EEE2" opacity="0.098"></circle><circle cx="144.09" cy="103.80" r="0.76" fill="#F4EEE2" opacity="0.083"></circle><circle cx="147.13" cy="116.42" r="1.45" fill="#F4EEE2" opacity="0.098"></circle><circle cx="143.63" cy="127.39" r="0.95" fill="#F4EEE2" opacity="0.072"></circle><circle cx="144.46" cy="136.07" r="1.38" fill="#F4EEE2" opacity="0.077"></circle><circle cx="146.13" cy="145.61" r="1.23" fill="#F4EEE2" opacity="0.056"></circle><circle cx="146.66" cy="154.91" r="0.83" fill="#F4EEE2" opacity="0.083"></circle><circle cx="154.82" cy="85.30" r="1.20" fill="#F4EEE2" opacity="0.093"></circle><circle cx="157.27" cy="93.27" r="0.79" fill="#F4EEE2" opacity="0.057"></circle><circle cx="155.12" cy="104.46" r="1.52" fill="#F4EEE2" opacity="0.091"></circle><circle cx="155.15" cy="117.04" r="0.95" fill="#F4EEE2" opacity="0.070"></circle><circle cx="157.13" cy="125.88" r="1.42" fill="#F4EEE2" opacity="0.060"></circle><circle cx="157.05" cy="137.35" r="1.46" fill="#F4EEE2" opacity="0.040"></circle><circle cx="153.34" cy="146.26" r="0.79" fill="#F4EEE2" opacity="0.045"></circle><circle cx="157.06" cy="153.86" r="1.23" fill="#F4EEE2" opacity="0.056"></circle></svg>