<svg xmlns="http://www.w3.org/2000/svg" width="84" height="84" viewBox="0 0 84 84"><rect x="-74.90" y="-77.50" width="3.4" height="15" rx="1.70" fill="#F4EEE2" opacity="0.06"></rect><rect x="-68.50" y="-77.50" width="3.4" height="15" rx="1.70" fill="#F4EEE2" opacity="0.06"></rect><rect x="-46.90" y="-77.50" width="3.4" height="15" rx="1.70" fill="#F4EEE2" opacity="0.06"></rect><rect x="-40.50" y="-77.50" width="3.4" height="15" rx="1.70" fill="#F4EEE2" opacity="0.06"></rect><rect x="-18.90" y="-77.50" width="3.4" height="15" rx="1.70" fill="#F4EEE2" opacity="0.06"></rect><rect x="-12.50" y="-77.50" width="3.4" height="15" rx="1.70" fill="#F4EEE2" opacity="0.06"></rect><rect x="-60.90" y="-49.50" width="3.4" height="15" rx="1.70" fill="#F4EEE2" opacity="0.06"></rect><rect x="-54.50" y="-49.50" width="3.4" height="15" rx="1.70" fill="#F4EEE2" opacity="0.06"></rect><rect x="-32.90" y="-49.50" width="3.4" height="15" rx="1.70" fill="#F4EEE2" opacity="0.06"></rect><rect x="-26.50" y="-49.50" width="3.4" height="15" rx="1.70" fill="#F4EEE2" opacity="0.06"></rect><rect x="-4.90" y="-49.50" width="3.4" height="15" rx="1.70" fill="#F4EEE2" opacity="0.06"></rect><rect x="1.50" y="-49.50" width="3.4" height="15" rx="1.70" fill="#F4EEE2" opacity="0.06"></rect><rect x="-74.90" y="-21.50" width="3.4" height="15" rx="1.70" fill="#F4EEE2" opacity="0.06"></rect><rect x="-68.50" y="-21.50" width="3.4" height="15" rx="1.70" fill="#F4EEE2" opacity="0.06"></rect><rect x="-46.90" y="-21.50" width="3.4" height="15" rx="1.70" fill="#F4EEE2" opacity="0.06"></rect><rect x="-40.50" y="-21.50" width="3.4" height="15" rx="1.70" fill="#F4EEE2" opacity="0.06"></rect><rect x="-18.90" y="-21.50" width="3.4" height="15" rx="1.70" fill="#F4EEE2" opacity="0.06"></rect><rect x="-12.50" y="-21.50" width="3.4" height="15" rx="1.70" fill="#F4EEE2" opacity="0.06"></rect><rect x="-74.90" y="6.50" width="3.4" height="15" rx="1.70" fill="#F4EEE2" opacity="0.06"></rect><rect x="-68.50" y="6.50" width="3.4" height="15" rx="1.70" fill="#F4EEE2" opacity="0.06"></rect><rect x="-46.90" y="6.50" width="3.4" height="15" rx="1.70" fill="#F4EEE2" opacity="0.06"></rect><rect x="-40.50" y="6.50" width="3.4" height="15" rx="1.70" fill="#F4EEE2" opacity="0.06"></rect><rect x="-18.90" y="6.50" width="3.4" height="15" rx="1.70" fill="#F4EEE2" opacity="0.06"></rect><rect x="-12.50" y="6.50" width="3.4" height="15" rx="1.70" fill="#F4EEE2" opacity="0.06"></rect><rect x="-60.90" y="34.50" width="3.4" height="15" rx="1.70" fill="#F4EEE2" opacity="0.06"></rect><rect x="-54.50" y="34.50" width="3.4" height="15" rx="1.70" fill="#F4EEE2" opacity="0.06"></rect><rect x="-32.90" y="34.50" width="3.4" height="15" rx="1.70" fill="#F4EEE2" opacity="0.06"></rect><rect x="-26.50" y="34.50" width="3.4" height="15" rx="1.70" fill="#F4EEE2" opacity="0.06"></rect><rect x="-4.90" y="34.50" width="3.4" height="15" rx="1.70" fill="#F4EEE2" opacity="0.06"></rect><rect x="1.50" y="34.50" width="3.4" height="15" rx="1.70" fill="#F4EEE2" opacity="0.06"></rect><rect x="-74.90" y="62.50" width="3.4" height="15" rx="1.70" fill="#F4EEE2" opacity="0.06"></rect><rect x="-68.50" y="62.50" width="3.4" height="15" rx="1.70" fill="#F4EEE2" opacity="0.06"></rect><rect x="-46.90" y="62.50" width="3.4" height="15" rx="1.70" fill="#F4EEE2" opacity="0.06"></rect><rect x="-40.50" y="62.50" width="3.4" height="15" rx="1.70" fill="#F4EEE2" opacity="0.06"></rect><rect x="-18.90" y="62.50" width="3.4" height="15" rx="1.70" fill="#F4EEE2" opacity="0.06"></rect><rect x="-12.50" y="62.50" width="3.4" height="15" rx="1.70" fill="#F4EEE2" opacity="0.06"></rect><rect x="-74.90" y="90.50" width="3.4" height="15" rx="1.70" fill="#F4EEE2" opacity="0.06"></rect><rect x="-68.50" y="90.50" width="3.4" height="15" rx="1.70" fill="#F4EEE2" opacity="0.06"></rect><rect x="-46.90" y="90.50" width="3.4" height="15" rx="1.70" fill="#F4EEE2" opacity="0.06"></rect><rect x="-40.50" y="90.50" width="3.4" height="15" rx="1.70" fill="#F4EEE2" opacity="0.06"></rect><rect x="-18.90" y="90.50" width="3.4" height="15" rx="1.70" fill="#F4EEE2" opacity="0.06"></rect><rect x="-12.50" y="90.50" width="3.4" height="15" rx="1.70" fill="#F4EEE2" opacity="0.06"></rect><rect x="-60.90" y="118.50" width="3.4" height="15" rx="1.70" fill="#F4EEE2" opacity="0.06"></rect><rect x="-54.50" y="118.50" width="3.4" height="15" rx="1.70" fill="#F4EEE2" opacity="0.06"></rect><rect x="-32.90" y="118.50" width="3.4" height="15" rx="1.70" fill="#F4EEE2" opacity="0.06"></rect><rect x="-26.50" y="118.50" width="3.4" height="15" rx="1.70" fill="#F4EEE2" opacity="0.06"></rect><rect x="-4.90" y="118.50" width="3.4" height="15" rx="1.70" fill="#F4EEE2" opacity="0.06"></rect><rect x="1.50" y="118.50" width="3.4" height="15" rx="1.70" fill="#F4EEE2" opacity="0.06"></rect><rect x="-74.90" y="146.50" width="3.4" height="15" rx="1.70" fill="#F4EEE2" opacity="0.06"></rect><rect x="-68.50" y="146.50" width="3.4" height="15" rx="1.70" fill="#F4EEE2" opacity="0.06"></rect><rect x="-46.90" y="146.50" width="3.4" height="15" rx="1.70" fill="#F4EEE2" opacity="0.06"></rect><rect x="-40.50" y="146.50" width="3.4" height="15" rx="1.70" fill="#F4EEE2" opacity="0.06"></rect><rect x="-18.90" y="146.50" width="3.4" height="15" rx="1.70" fill="#F4EEE2" opacity="0.06"></rect><rect x="-12.50" y="146.50" width="3.4" height="15" rx="1.70" fill="#F4EEE2" opacity="0.06"></rect><rect x="9.10" y="-77.50" width="3.4" height="15" rx="1.70" fill="#F4EEE2" opacity="0.06"></rect><rect x="15.50" y="-77.50" width="3.4" height="15" rx="1.70" fill="#F4EEE2" opacity="0.06"></rect><rect x="37.10" y="-77.50" width="3.4" height="15" rx="1.70" fill="#F4EEE2" opacity="0.06"></rect><rect x="43.50" y="-77.50" width="3.4" height="15" rx="1.70" fill="#F4EEE2" opacity="0.06"></rect><rect x="65.10" y="-77.50" width="3.4" height="15" rx="1.70" fill="#F4EEE2" opacity="0.06"></rect><rect x="71.50" y="-77.50" width="3.4" height="15" rx="1.70" fill="#F4EEE2" opacity="0.06"></rect><rect x="23.10" y="-49.50" width="3.4" height="15" rx="1.70" fill="#F4EEE2" opacity="0.06"></rect><rect x="29.50" y="-49.50" width="3.4" height="15" rx="1.70" fill="#F4EEE2" opacity="0.06"></rect><rect x="51.10" y="-49.50" width="3.4" height="15" rx="1.70" fill="#F4EEE2" opacity="0.06"></rect><rect x="57.50" y="-49.50" width="3.4" height="15" rx="1.70" fill="#F4EEE2" opacity="0.06"></rect><rect x="79.10" y="-49.50" width="3.4" height="15" rx="1.70" fill="#F4EEE2" opacity="0.06"></rect><rect x="85.50" y="-49.50" width="3.4" height="15" rx="1.70" fill="#F4EEE2" opacity="0.06"></rect><rect x="9.10" y="-21.50" width="3.4" height="15" rx="1.70" fill="#F4EEE2" opacity="0.06"></rect><rect x="15.50" y="-21.50" width="3.4" height="15" rx="1.70" fill="#F4EEE2" opacity="0.06"></rect><rect x="37.10" y="-21.50" width="3.4" height="15" rx="1.70" fill="#F4EEE2" opacity="0.06"></rect><rect x="43.50" y="-21.50" width="3.4" height="15" rx="1.70" fill="#F4EEE2" opacity="0.06"></rect><rect x="65.10" y="-21.50" width="3.4" height="15" rx="1.70" fill="#F4EEE2" opacity="0.06"></rect><rect x="71.50" y="-21.50" width="3.4" height="15" rx="1.70" fill="#F4EEE2" opacity="0.06"></rect><rect x="9.10" y="6.50" width="3.4" height="15" rx="1.70" fill="#F4EEE2" opacity="0.06"></rect><rect x="15.50" y="6.50" width="3.4" height="15" rx="1.70" fill="#F4EEE2" opacity="0.06"></rect><rect x="37.10" y="6.50" width="3.4" height="15" rx="1.70" fill="#F4EEE2" opacity="0.06"></rect><rect x="43.50" y="6.50" width="3.4" height="15" rx="1.70" fill="#F4EEE2" opacity="0.06"></rect><rect x="65.10" y="6.50" width="3.4" height="15" rx="1.70" fill="#F4EEE2" opacity="0.06"></rect><rect x="71.50" y="6.50" width="3.4" height="15" rx="1.70" fill="#F4EEE2" opacity="0.06"></rect><rect x="23.10" y="34.50" width="3.4" height="15" rx="1.70" fill="#F4EEE2" opacity="0.06"></rect><rect x="29.50" y="34.50" width="3.4" height="15" rx="1.70" fill="#F4EEE2" opacity="0.06"></rect><rect x="51.10" y="34.50" width="3.4" height="15" rx="1.70" fill="#F4EEE2" opacity="0.06"></rect><rect x="57.50" y="34.50" width="3.4" height="15" rx="1.70" fill="#F4EEE2" opacity="0.06"></rect><rect x="79.10" y="34.50" width="3.4" height="15" rx="1.70" fill="#F4EEE2" opacity="0.06"></rect><rect x="85.50" y="34.50" width="3.4" height="15" rx="1.70" fill="#F4EEE2" opacity="0.06"></rect><rect x="9.10" y="62.50" width="3.4" height="15" rx="1.70" fill="#F4EEE2" opacity="0.06"></rect><rect x="15.50" y="62.50" width="3.4" height="15" rx="1.70" fill="#F4EEE2" opacity="0.06"></rect><rect x="37.10" y="62.50" width="3.4" height="15" rx="1.70" fill="#F4EEE2" opacity="0.06"></rect><rect x="43.50" y="62.50" width="3.4" height="15" rx="1.70" fill="#F4EEE2" opacity="0.06"></rect><rect x="65.10" y="62.50" width="3.4" height="15" rx="1.70" fill="#F4EEE2" opacity="0.06"></rect><rect x="71.50" y="62.50" width="3.4" height="15" rx="1.70" fill="#F4EEE2" opacity="0.06"></rect><rect x="9.10" y="90.50" width="3.4" height="15" rx="1.70" fill="#F4EEE2" opacity="0.06"></rect><rect x="15.50" y="90.50" width="3.4" height="15" rx="1.70" fill="#F4EEE2" opacity="0.06"></rect><rect x="37.10" y="90.50" width="3.4" height="15" rx="1.70" fill="#F4EEE2" opacity="0.06"></rect><rect x="43.50" y="90.50" width="3.4" height="15" rx="1.70" fill="#F4EEE2" opacity="0.06"></rect><rect x="65.10" y="90.50" width="3.4" height="15" rx="1.70" fill="#F4EEE2" opacity="0.06"></rect><rect x="71.50" y="90.50" width="3.4" height="15" rx="1.70" fill="#F4EEE2" opacity="0.06"></rect><rect x="23.10" y="118.50" width="3.4" height="15" rx="1.70" fill="#F4EEE2" opacity="0.06"></rect><rect x="29.50" y="118.50" width="3.4" height="15" rx="1.70" fill="#F4EEE2" opacity="0.06"></rect><rect x="51.10" y="118.50" width="3.4" height="15" rx="1.70" fill="#F4EEE2" opacity="0.06"></rect><rect x="57.50" y="118.50" width="3.4" height="15" rx="1.70" fill="#F4EEE2" opacity="0.06"></rect><rect x="79.10" y="118.50" width="3.4" height="15" rx="1.70" fill="#F4EEE2" opacity="0.06"></rect><rect x="85.50" y="118.50" width="3.4" height="15" rx="1.70" fill="#F4EEE2" opacity="0.06"></rect><rect x="9.10" y="146.50" width="3.4" height="15" rx="1.70" fill="#F4EEE2" opacity="0.06"></rect><rect x="15.50" y="146.50" width="3.4" height="15" rx="1.70" fill="#F4EEE2" opacity="0.06"></rect><rect x="37.10" y="146.50" width="3.4" height="15" rx="1.70" fill="#F4EEE2" opacity="0.06"></rect><rect x="43.50" y="146.50" width="3.4" height="15" rx="1.70" fill="#F4EEE2" opacity="0.06"></rect><rect x="65.10" y="146.50" width="3.4" height="15" rx="1.70" fill="#F4EEE2" opacity="0.06"></rect><rect x="71.50" y="146.50" width="3.4" height="15" rx="1.70" fill="#F4EEE2" opacity="0.06"></rect><rect x="93.10" y="-77.50" width="3.4" height="15" rx="1.70" fill="#F4EEE2" opacity="0.06"></rect><rect x="99.50" y="-77.50" width="3.4" height="15" rx="1.70" fill="#F4EEE2" opacity="0.06"></rect><rect x="121.10" y="-77.50" width="3.4" height="15" rx="1.70" fill="#F4EEE2" opacity="0.06"></rect><rect x="127.50" y="-77.50" width="3.4" height="15" rx="1.70" fill="#F4EEE2" opacity="0.06"></rect><rect x="149.10" y="-77.50" width="3.4" height="15" rx="1.70" fill="#F4EEE2" opacity="0.06"></rect><rect x="155.50" y="-77.50" width="3.4" height="15" rx="1.70" fill="#F4EEE2" opacity="0.06"></rect><rect x="107.10" y="-49.50" width="3.4" height="15" rx="1.70" fill="#F4EEE2" opacity="0.06"></rect><rect x="113.50" y="-49.50" width="3.4" height="15" rx="1.70" fill="#F4EEE2" opacity="0.06"></rect><rect x="135.10" y="-49.50" width="3.4" height="15" rx="1.70" fill="#F4EEE2" opacity="0.06"></rect><rect x="141.50" y="-49.50" width="3.4" height="15" rx="1.70" fill="#F4EEE2" opacity="0.06"></rect><rect x="163.10" y="-49.50" width="3.4" height="15" rx="1.70" fill="#F4EEE2" opacity="0.06"></rect><rect x="169.50" y="-49.50" width="3.4" height="15" rx="1.70" fill="#F4EEE2" opacity="0.06"></rect><rect x="93.10" y="-21.50" width="3.4" height="15" rx="1.70" fill="#F4EEE2" opacity="0.06"></rect><rect x="99.50" y="-21.50" width="3.4" height="15" rx="1.70" fill="#F4EEE2" opacity="0.06"></rect><rect x="121.10" y="-21.50" width="3.4" height="15" rx="1.70" fill="#F4EEE2" opacity="0.06"></rect><rect x="127.50" y="-21.50" width="3.4" height="15" rx="1.70" fill="#F4EEE2" opacity="0.06"></rect><rect x="149.10" y="-21.50" width="3.4" height="15" rx="1.70" fill="#F4EEE2" opacity="0.06"></rect><rect x="155.50" y="-21.50" width="3.4" height="15" rx="1.70" fill="#F4EEE2" opacity="0.06"></rect><rect x="93.10" y="6.50" width="3.4" height="15" rx="1.70" fill="#F4EEE2" opacity="0.06"></rect><rect x="99.50" y="6.50" width="3.4" height="15" rx="1.70" fill="#F4EEE2" opacity="0.06"></rect><rect x="121.10" y="6.50" width="3.4" height="15" rx="1.70" fill="#F4EEE2" opacity="0.06"></rect><rect x="127.50" y="6.50" width="3.4" height="15" rx="1.70" fill="#F4EEE2" opacity="0.06"></rect><rect x="149.10" y="6.50" width="3.4" height="15" rx="1.70" fill="#F4EEE2" opacity="0.06"></rect><rect x="155.50" y="6.50" width="3.4" height="15" rx="1.70" fill="#F4EEE2" opacity="0.06"></rect><rect x="107.10" y="34.50" width="3.4" height="15" rx="1.70" fill="#F4EEE2" opacity="0.06"></rect><rect x="113.50" y="34.50" width="3.4" height="15" rx="1.70" fill="#F4EEE2" opacity="0.06"></rect><rect x="135.10" y="34.50" width="3.4" height="15" rx="1.70" fill="#F4EEE2" opacity="0.06"></rect><rect x="141.50" y="34.50" width="3.4" height="15" rx="1.70" fill="#F4EEE2" opacity="0.06"></rect><rect x="163.10" y="34.50" width="3.4" height="15" rx="1.70" fill="#F4EEE2" opacity="0.06"></rect><rect x="169.50" y="34.50" width="3.4" height="15" rx="1.70" fill="#F4EEE2" opacity="0.06"></rect><rect x="93.10" y="62.50" width="3.4" height="15" rx="1.70" fill="#F4EEE2" opacity="0.06"></rect><rect x="99.50" y="62.50" width="3.4" height="15" rx="1.70" fill="#F4EEE2" opacity="0.06"></rect><rect x="121.10" y="62.50" width="3.4" height="15" rx="1.70" fill="#F4EEE2" opacity="0.06"></rect><rect x="127.50" y="62.50" width="3.4" height="15" rx="1.70" fill="#F4EEE2" opacity="0.06"></rect><rect x="149.10" y="62.50" width="3.4" height="15" rx="1.70" fill="#F4EEE2" opacity="0.06"></rect><rect x="155.50" y="62.50" width="3.4" height="15" rx="1.70" fill="#F4EEE2" opacity="0.06"></rect><rect x="93.10" y="90.50" width="3.4" height="15" rx="1.70" fill="#F4EEE2" opacity="0.06"></rect><rect x="99.50" y="90.50" width="3.4" height="15" rx="1.70" fill="#F4EEE2" opacity="0.06"></rect><rect x="121.10" y="90.50" width="3.4" height="15" rx="1.70" fill="#F4EEE2" opacity="0.06"></rect><rect x="127.50" y="90.50" width="3.4" height="15" rx="1.70" fill="#F4EEE2" opacity="0.06"></rect><rect x="149.10" y="90.50" width="3.4" height="15" rx="1.70" fill="#F4EEE2" opacity="0.06"></rect><rect x="155.50" y="90.50" width="3.4" height="15" rx="1.70" fill="#F4EEE2" opacity="0.06"></rect><rect x="107.10" y="118.50" width="3.4" height="15" rx="1.70" fill="#F4EEE2" opacity="0.06"></rect><rect x="113.50" y="118.50" width="3.4" height="15" rx="1.70" fill="#F4EEE2" opacity="0.06"></rect><rect x="135.10" y="118.50" width="3.4" height="15" rx="1.70" fill="#F4EEE2" opacity="0.06"></rect><rect x="141.50" y="118.50" width="3.4" height="15" rx="1.70" fill="#F4EEE2" opacity="0.06"></rect><rect x="163.10" y="118.50" width="3.4" height="15" rx="1.70" fill="#F4EEE2" opacity="0.06"></rect><rect x="169.50" y="118.50" width="3.4" height="15" rx="1.70" fill="#F4EEE2" opacity="0.06"></rect><rect x="93.10" y="146.50" width="3.4" height="15" rx="1.70" fill="#F4EEE2" opacity="0.06"></rect><rect x="99.50" y="146.50" width="3.4" height="15" rx="1.70" fill="#F4EEE2" opacity="0.06"></rect><rect x="121.10" y="146.50" width="3.4" height="15" rx="1.70" fill="#F4EEE2" opacity="0.06"></rect><rect x="127.50" y="146.50" width="3.4" height="15" rx="1.70" fill="#F4EEE2" opacity="0.06"></rect><rect x="149.10" y="146.50" width="3.4" height="15" rx="1.70" fill="#F4EEE2" opacity="0.06"></rect><rect x="155.50" y="146.50" width="3.4" height="15" rx="1.70" fill="#F4EEE2" opacity="0.06"></rect></svg>