<svg xmlns="http://www.w3.org/2000/svg" width="80" height="80" viewBox="0 0 80 80"><line x1="-72.00" y1="-74.86" x2="-72.00" y2="-69.14" stroke="#F4EEE2" stroke-width="2" stroke-linecap="round" opacity="0.097"></line><line x1="-56.00" y1="-74.57" x2="-56.00" y2="-69.43" stroke="#F4EEE2" stroke-width="2" stroke-linecap="round" opacity="0.093"></line><line x1="-40.00" y1="-74.95" x2="-40.00" y2="-69.05" stroke="#F4EEE2" stroke-width="2" stroke-linecap="round" opacity="0.124"></line><line x1="-24.00" y1="-75.74" x2="-24.00" y2="-68.26" stroke="#F4EEE2" stroke-width="2" stroke-linecap="round" opacity="0.091"></line><line x1="-8.00" y1="-74.89" x2="-8.00" y2="-69.11" stroke="#F4EEE2" stroke-width="2" stroke-linecap="round" opacity="0.117"></line><line x1="-64.00" y1="-58.38" x2="-64.00" y2="-53.62" stroke="#F4EEE2" stroke-width="2" stroke-linecap="round" opacity="0.090"></line><line x1="-48.00" y1="-59.23" x2="-48.00" y2="-52.77" stroke="#F4EEE2" stroke-width="2" stroke-linecap="round" opacity="0.090"></line><line x1="-32.00" y1="-58.19" x2="-32.00" y2="-53.81" stroke="#F4EEE2" stroke-width="2" stroke-linecap="round" opacity="0.125"></line><line x1="-16.00" y1="-58.41" x2="-16.00" y2="-53.59" stroke="#F4EEE2" stroke-width="2" stroke-linecap="round" opacity="0.103"></line><line x1="-80.00" y1="-59.65" x2="-80.00" y2="-52.35" stroke="#F4EEE2" stroke-width="2" stroke-linecap="round" opacity="0.073"></line><line x1="-72.00" y1="-42.98" x2="-72.00" y2="-37.02" stroke="#F4EEE2" stroke-width="2" stroke-linecap="round" opacity="0.084"></line><line x1="-56.00" y1="-43.10" x2="-56.00" y2="-36.90" stroke="#F4EEE2" stroke-width="2" stroke-linecap="round" opacity="0.098"></line><line x1="-40.00" y1="-42.20" x2="-40.00" y2="-37.80" stroke="#F4EEE2" stroke-width="2" stroke-linecap="round" opacity="0.110"></line><line x1="-24.00" y1="-43.61" x2="-24.00" y2="-36.39" stroke="#F4EEE2" stroke-width="2" stroke-linecap="round" opacity="0.124"></line><line x1="-8.00" y1="-43.30" x2="-8.00" y2="-36.70" stroke="#F4EEE2" stroke-width="2" stroke-linecap="round" opacity="0.105"></line><line x1="-64.00" y1="-26.37" x2="-64.00" y2="-21.63" stroke="#F4EEE2" stroke-width="2" stroke-linecap="round" opacity="0.090"></line><line x1="-48.00" y1="-26.76" x2="-48.00" y2="-21.24" stroke="#F4EEE2" stroke-width="2" stroke-linecap="round" opacity="0.089"></line><line x1="-32.00" y1="-27.27" x2="-32.00" y2="-20.73" stroke="#F4EEE2" stroke-width="2" stroke-linecap="round" opacity="0.096"></line><line x1="-16.00" y1="-26.78" x2="-16.00" y2="-21.22" stroke="#F4EEE2" stroke-width="2" stroke-linecap="round" opacity="0.126"></line><line x1="-80.00" y1="-27.16" x2="-80.00" y2="-20.84" stroke="#F4EEE2" stroke-width="2" stroke-linecap="round" opacity="0.115"></line><line x1="-72.00" y1="-10.63" x2="-72.00" y2="-5.37" stroke="#F4EEE2" stroke-width="2" stroke-linecap="round" opacity="0.122"></line><line x1="-56.00" y1="-11.84" x2="-56.00" y2="-4.16" stroke="#F4EEE2" stroke-width="2" stroke-linecap="round" opacity="0.118"></line><line x1="-40.00" y1="-11.28" x2="-40.00" y2="-4.72" stroke="#F4EEE2" stroke-width="2" stroke-linecap="round" opacity="0.078"></line><line x1="-24.00" y1="-10.94" x2="-24.00" y2="-5.06" stroke="#F4EEE2" stroke-width="2" stroke-linecap="round" opacity="0.074"></line><line x1="-8.00" y1="-10.20" x2="-8.00" y2="-5.80" stroke="#F4EEE2" stroke-width="2" stroke-linecap="round" opacity="0.113"></line><line x1="-72.00" y1="5.14" x2="-72.00" y2="10.86" stroke="#F4EEE2" stroke-width="2" stroke-linecap="round" opacity="0.097"></line><line x1="-56.00" y1="5.43" x2="-56.00" y2="10.57" stroke="#F4EEE2" stroke-width="2" stroke-linecap="round" opacity="0.093"></line><line x1="-40.00" y1="5.05" x2="-40.00" y2="10.95" stroke="#F4EEE2" stroke-width="2" stroke-linecap="round" opacity="0.124"></line><line x1="-24.00" y1="4.26" x2="-24.00" y2="11.74" stroke="#F4EEE2" stroke-width="2" stroke-linecap="round" opacity="0.091"></line><line x1="-8.00" y1="5.11" x2="-8.00" y2="10.89" stroke="#F4EEE2" stroke-width="2" stroke-linecap="round" opacity="0.117"></line><line x1="-64.00" y1="21.62" x2="-64.00" y2="26.38" stroke="#F4EEE2" stroke-width="2" stroke-linecap="round" opacity="0.090"></line><line x1="-48.00" y1="20.77" x2="-48.00" y2="27.23" stroke="#F4EEE2" stroke-width="2" stroke-linecap="round" opacity="0.090"></line><line x1="-32.00" y1="21.81" x2="-32.00" y2="26.19" stroke="#F4EEE2" stroke-width="2" stroke-linecap="round" opacity="0.125"></line><line x1="-16.00" y1="21.59" x2="-16.00" y2="26.41" stroke="#F4EEE2" stroke-width="2" stroke-linecap="round" opacity="0.103"></line><line x1="-80.00" y1="20.35" x2="-80.00" y2="27.65" stroke="#F4EEE2" stroke-width="2" stroke-linecap="round" opacity="0.073"></line><line x1="-72.00" y1="37.02" x2="-72.00" y2="42.98" stroke="#F4EEE2" stroke-width="2" stroke-linecap="round" opacity="0.084"></line><line x1="-56.00" y1="36.90" x2="-56.00" y2="43.10" stroke="#F4EEE2" stroke-width="2" stroke-linecap="round" opacity="0.098"></line><line x1="-40.00" y1="37.80" x2="-40.00" y2="42.20" stroke="#F4EEE2" stroke-width="2" stroke-linecap="round" opacity="0.110"></line><line x1="-24.00" y1="36.39" x2="-24.00" y2="43.61" stroke="#F4EEE2" stroke-width="2" stroke-linecap="round" opacity="0.124"></line><line x1="-8.00" y1="36.70" x2="-8.00" y2="43.30" stroke="#F4EEE2" stroke-width="2" stroke-linecap="round" opacity="0.105"></line><line x1="-64.00" y1="53.63" x2="-64.00" y2="58.37" stroke="#F4EEE2" stroke-width="2" stroke-linecap="round" opacity="0.090"></line><line x1="-48.00" y1="53.24" x2="-48.00" y2="58.76" stroke="#F4EEE2" stroke-width="2" stroke-linecap="round" opacity="0.089"></line><line x1="-32.00" y1="52.73" x2="-32.00" y2="59.27" stroke="#F4EEE2" stroke-width="2" stroke-linecap="round" opacity="0.096"></line><line x1="-16.00" y1="53.22" x2="-16.00" y2="58.78" stroke="#F4EEE2" stroke-width="2" stroke-linecap="round" opacity="0.126"></line><line x1="-80.00" y1="52.84" x2="-80.00" y2="59.16" stroke="#F4EEE2" stroke-width="2" stroke-linecap="round" opacity="0.115"></line><line x1="-72.00" y1="69.37" x2="-72.00" y2="74.63" stroke="#F4EEE2" stroke-width="2" stroke-linecap="round" opacity="0.122"></line><line x1="-56.00" y1="68.16" x2="-56.00" y2="75.84" stroke="#F4EEE2" stroke-width="2" stroke-linecap="round" opacity="0.118"></line><line x1="-40.00" y1="68.72" x2="-40.00" y2="75.28" stroke="#F4EEE2" stroke-width="2" stroke-linecap="round" opacity="0.078"></line><line x1="-24.00" y1="69.06" x2="-24.00" y2="74.94" stroke="#F4EEE2" stroke-width="2" stroke-linecap="round" opacity="0.074"></line><line x1="-8.00" y1="69.80" x2="-8.00" y2="74.20" stroke="#F4EEE2" stroke-width="2" stroke-linecap="round" opacity="0.113"></line><line x1="-72.00" y1="85.14" x2="-72.00" y2="90.86" stroke="#F4EEE2" stroke-width="2" stroke-linecap="round" opacity="0.097"></line><line x1="-56.00" y1="85.43" x2="-56.00" y2="90.57" stroke="#F4EEE2" stroke-width="2" stroke-linecap="round" opacity="0.093"></line><line x1="-40.00" y1="85.05" x2="-40.00" y2="90.95" stroke="#F4EEE2" stroke-width="2" stroke-linecap="round" opacity="0.124"></line><line x1="-24.00" y1="84.26" x2="-24.00" y2="91.74" stroke="#F4EEE2" stroke-width="2" stroke-linecap="round" opacity="0.091"></line><line x1="-8.00" y1="85.11" x2="-8.00" y2="90.89" stroke="#F4EEE2" stroke-width="2" stroke-linecap="round" opacity="0.117"></line><line x1="-64.00" y1="101.62" x2="-64.00" y2="106.38" stroke="#F4EEE2" stroke-width="2" stroke-linecap="round" opacity="0.090"></line><line x1="-48.00" y1="100.77" x2="-48.00" y2="107.23" stroke="#F4EEE2" stroke-width="2" stroke-linecap="round" opacity="0.090"></line><line x1="-32.00" y1="101.81" x2="-32.00" y2="106.19" stroke="#F4EEE2" stroke-width="2" stroke-linecap="round" opacity="0.125"></line><line x1="-16.00" y1="101.59" x2="-16.00" y2="106.41" stroke="#F4EEE2" stroke-width="2" stroke-linecap="round" opacity="0.103"></line><line x1="-80.00" y1="100.35" x2="-80.00" y2="107.65" stroke="#F4EEE2" stroke-width="2" stroke-linecap="round" opacity="0.073"></line><line x1="-72.00" y1="117.02" x2="-72.00" y2="122.98" stroke="#F4EEE2" stroke-width="2" stroke-linecap="round" opacity="0.084"></line><line x1="-56.00" y1="116.90" x2="-56.00" y2="123.10" stroke="#F4EEE2" stroke-width="2" stroke-linecap="round" opacity="0.098"></line><line x1="-40.00" y1="117.80" x2="-40.00" y2="122.20" stroke="#F4EEE2" stroke-width="2" stroke-linecap="round" opacity="0.110"></line><line x1="-24.00" y1="116.39" x2="-24.00" y2="123.61" stroke="#F4EEE2" stroke-width="2" stroke-linecap="round" opacity="0.124"></line><line x1="-8.00" y1="116.70" x2="-8.00" y2="123.30" stroke="#F4EEE2" stroke-width="2" stroke-linecap="round" opacity="0.105"></line><line x1="-64.00" y1="133.63" x2="-64.00" y2="138.37" stroke="#F4EEE2" stroke-width="2" stroke-linecap="round" opacity="0.090"></line><line x1="-48.00" y1="133.24" x2="-48.00" y2="138.76" stroke="#F4EEE2" stroke-width="2" stroke-linecap="round" opacity="0.089"></line><line x1="-32.00" y1="132.73" x2="-32.00" y2="139.27" stroke="#F4EEE2" stroke-width="2" stroke-linecap="round" opacity="0.096"></line><line x1="-16.00" y1="133.22" x2="-16.00" y2="138.78" stroke="#F4EEE2" stroke-width="2" stroke-linecap="round" opacity="0.126"></line><line x1="-80.00" y1="132.84" x2="-80.00" y2="139.16" stroke="#F4EEE2" stroke-width="2" stroke-linecap="round" opacity="0.115"></line><line x1="-72.00" y1="149.37" x2="-72.00" y2="154.63" stroke="#F4EEE2" stroke-width="2" stroke-linecap="round" opacity="0.122"></line><line x1="-56.00" y1="148.16" x2="-56.00" y2="155.84" stroke="#F4EEE2" stroke-width="2" stroke-linecap="round" opacity="0.118"></line><line x1="-40.00" y1="148.72" x2="-40.00" y2="155.28" stroke="#F4EEE2" stroke-width="2" stroke-linecap="round" opacity="0.078"></line><line x1="-24.00" y1="149.06" x2="-24.00" y2="154.94" stroke="#F4EEE2" stroke-width="2" stroke-linecap="round" opacity="0.074"></line><line x1="-8.00" y1="149.80" x2="-8.00" y2="154.20" stroke="#F4EEE2" stroke-width="2" stroke-linecap="round" opacity="0.113"></line><line x1="8.00" y1="-74.86" x2="8.00" y2="-69.14" stroke="#F4EEE2" stroke-width="2" stroke-linecap="round" opacity="0.097"></line><line x1="24.00" y1="-74.57" x2="24.00" y2="-69.43" stroke="#F4EEE2" stroke-width="2" stroke-linecap="round" opacity="0.093"></line><line x1="40.00" y1="-74.95" x2="40.00" y2="-69.05" stroke="#F4EEE2" stroke-width="2" stroke-linecap="round" opacity="0.124"></line><line x1="56.00" y1="-75.74" x2="56.00" y2="-68.26" stroke="#F4EEE2" stroke-width="2" stroke-linecap="round" opacity="0.091"></line><line x1="72.00" y1="-74.89" x2="72.00" y2="-69.11" stroke="#F4EEE2" stroke-width="2" stroke-linecap="round" opacity="0.117"></line><line x1="16.00" y1="-58.38" x2="16.00" y2="-53.62" stroke="#F4EEE2" stroke-width="2" stroke-linecap="round" opacity="0.090"></line><line x1="32.00" y1="-59.23" x2="32.00" y2="-52.77" stroke="#F4EEE2" stroke-width="2" stroke-linecap="round" opacity="0.090"></line><line x1="48.00" y1="-58.19" x2="48.00" y2="-53.81" stroke="#F4EEE2" stroke-width="2" stroke-linecap="round" opacity="0.125"></line><line x1="64.00" y1="-58.41" x2="64.00" y2="-53.59" stroke="#F4EEE2" stroke-width="2" stroke-linecap="round" opacity="0.103"></line><line x1="0.00" y1="-59.65" x2="0.00" y2="-52.35" stroke="#F4EEE2" stroke-width="2" stroke-linecap="round" opacity="0.073"></line><line x1="8.00" y1="-42.98" x2="8.00" y2="-37.02" stroke="#F4EEE2" stroke-width="2" stroke-linecap="round" opacity="0.084"></line><line x1="24.00" y1="-43.10" x2="24.00" y2="-36.90" stroke="#F4EEE2" stroke-width="2" stroke-linecap="round" opacity="0.098"></line><line x1="40.00" y1="-42.20" x2="40.00" y2="-37.80" stroke="#F4EEE2" stroke-width="2" stroke-linecap="round" opacity="0.110"></line><line x1="56.00" y1="-43.61" x2="56.00" y2="-36.39" stroke="#F4EEE2" stroke-width="2" stroke-linecap="round" opacity="0.124"></line><line x1="72.00" y1="-43.30" x2="72.00" y2="-36.70" stroke="#F4EEE2" stroke-width="2" stroke-linecap="round" opacity="0.105"></line><line x1="16.00" y1="-26.37" x2="16.00" y2="-21.63" stroke="#F4EEE2" stroke-width="2" stroke-linecap="round" opacity="0.090"></line><line x1="32.00" y1="-26.76" x2="32.00" y2="-21.24" stroke="#F4EEE2" stroke-width="2" stroke-linecap="round" opacity="0.089"></line><line x1="48.00" y1="-27.27" x2="48.00" y2="-20.73" stroke="#F4EEE2" stroke-width="2" stroke-linecap="round" opacity="0.096"></line><line x1="64.00" y1="-26.78" x2="64.00" y2="-21.22" stroke="#F4EEE2" stroke-width="2" stroke-linecap="round" opacity="0.126"></line><line x1="0.00" y1="-27.16" x2="0.00" y2="-20.84" stroke="#F4EEE2" stroke-width="2" stroke-linecap="round" opacity="0.115"></line><line x1="8.00" y1="-10.63" x2="8.00" y2="-5.37" stroke="#F4EEE2" stroke-width="2" stroke-linecap="round" opacity="0.122"></line><line x1="24.00" y1="-11.84" x2="24.00" y2="-4.16" stroke="#F4EEE2" stroke-width="2" stroke-linecap="round" opacity="0.118"></line><line x1="40.00" y1="-11.28" x2="40.00" y2="-4.72" stroke="#F4EEE2" stroke-width="2" stroke-linecap="round" opacity="0.078"></line><line x1="56.00" y1="-10.94" x2="56.00" y2="-5.06" stroke="#F4EEE2" stroke-width="2" stroke-linecap="round" opacity="0.074"></line><line x1="72.00" y1="-10.20" x2="72.00" y2="-5.80" stroke="#F4EEE2" stroke-width="2" stroke-linecap="round" opacity="0.113"></line><line x1="8.00" y1="5.14" x2="8.00" y2="10.86" stroke="#F4EEE2" stroke-width="2" stroke-linecap="round" opacity="0.097"></line><line x1="24.00" y1="5.43" x2="24.00" y2="10.57" stroke="#F4EEE2" stroke-width="2" stroke-linecap="round" opacity="0.093"></line><line x1="40.00" y1="5.05" x2="40.00" y2="10.95" stroke="#F4EEE2" stroke-width="2" stroke-linecap="round" opacity="0.124"></line><line x1="56.00" y1="4.26" x2="56.00" y2="11.74" stroke="#F4EEE2" stroke-width="2" stroke-linecap="round" opacity="0.091"></line><line x1="72.00" y1="5.11" x2="72.00" y2="10.89" stroke="#F4EEE2" stroke-width="2" stroke-linecap="round" opacity="0.117"></line><line x1="16.00" y1="21.62" x2="16.00" y2="26.38" stroke="#F4EEE2" stroke-width="2" stroke-linecap="round" opacity="0.090"></line><line x1="32.00" y1="20.77" x2="32.00" y2="27.23" stroke="#F4EEE2" stroke-width="2" stroke-linecap="round" opacity="0.090"></line><line x1="48.00" y1="21.81" x2="48.00" y2="26.19" stroke="#F4EEE2" stroke-width="2" stroke-linecap="round" opacity="0.125"></line><line x1="64.00" y1="21.59" x2="64.00" y2="26.41" stroke="#F4EEE2" stroke-width="2" stroke-linecap="round" opacity="0.103"></line><line x1="0.00" y1="20.35" x2="0.00" y2="27.65" stroke="#F4EEE2" stroke-width="2" stroke-linecap="round" opacity="0.073"></line><line x1="8.00" y1="37.02" x2="8.00" y2="42.98" stroke="#F4EEE2" stroke-width="2" stroke-linecap="round" opacity="0.084"></line><line x1="24.00" y1="36.90" x2="24.00" y2="43.10" stroke="#F4EEE2" stroke-width="2" stroke-linecap="round" opacity="0.098"></line><line x1="40.00" y1="37.80" x2="40.00" y2="42.20" stroke="#F4EEE2" stroke-width="2" stroke-linecap="round" opacity="0.110"></line><line x1="56.00" y1="36.39" x2="56.00" y2="43.61" stroke="#F4EEE2" stroke-width="2" stroke-linecap="round" opacity="0.124"></line><line x1="72.00" y1="36.70" x2="72.00" y2="43.30" stroke="#F4EEE2" stroke-width="2" stroke-linecap="round" opacity="0.105"></line><line x1="16.00" y1="53.63" x2="16.00" y2="58.37" stroke="#F4EEE2" stroke-width="2" stroke-linecap="round" opacity="0.090"></line><line x1="32.00" y1="53.24" x2="32.00" y2="58.76" stroke="#F4EEE2" stroke-width="2" stroke-linecap="round" opacity="0.089"></line><line x1="48.00" y1="52.73" x2="48.00" y2="59.27" stroke="#F4EEE2" stroke-width="2" stroke-linecap="round" opacity="0.096"></line><line x1="64.00" y1="53.22" x2="64.00" y2="58.78" stroke="#F4EEE2" stroke-width="2" stroke-linecap="round" opacity="0.126"></line><line x1="0.00" y1="52.84" x2="0.00" y2="59.16" stroke="#F4EEE2" stroke-width="2" stroke-linecap="round" opacity="0.115"></line><line x1="8.00" y1="69.37" x2="8.00" y2="74.63" stroke="#F4EEE2" stroke-width="2" stroke-linecap="round" opacity="0.122"></line><line x1="24.00" y1="68.16" x2="24.00" y2="75.84" stroke="#F4EEE2" stroke-width="2" stroke-linecap="round" opacity="0.118"></line><line x1="40.00" y1="68.72" x2="40.00" y2="75.28" stroke="#F4EEE2" stroke-width="2" stroke-linecap="round" opacity="0.078"></line><line x1="56.00" y1="69.06" x2="56.00" y2="74.94" stroke="#F4EEE2" stroke-width="2" stroke-linecap="round" opacity="0.074"></line><line x1="72.00" y1="69.80" x2="72.00" y2="74.20" stroke="#F4EEE2" stroke-width="2" stroke-linecap="round" opacity="0.113"></line><line x1="8.00" y1="85.14" x2="8.00" y2="90.86" stroke="#F4EEE2" stroke-width="2" stroke-linecap="round" opacity="0.097"></line><line x1="24.00" y1="85.43" x2="24.00" y2="90.57" stroke="#F4EEE2" stroke-width="2" stroke-linecap="round" opacity="0.093"></line><line x1="40.00" y1="85.05" x2="40.00" y2="90.95" stroke="#F4EEE2" stroke-width="2" stroke-linecap="round" opacity="0.124"></line><line x1="56.00" y1="84.26" x2="56.00" y2="91.74" stroke="#F4EEE2" stroke-width="2" stroke-linecap="round" opacity="0.091"></line><line x1="72.00" y1="85.11" x2="72.00" y2="90.89" stroke="#F4EEE2" stroke-width="2" stroke-linecap="round" opacity="0.117"></line><line x1="16.00" y1="101.62" x2="16.00" y2="106.38" stroke="#F4EEE2" stroke-width="2" stroke-linecap="round" opacity="0.090"></line><line x1="32.00" y1="100.77" x2="32.00" y2="107.23" stroke="#F4EEE2" stroke-width="2" stroke-linecap="round" opacity="0.090"></line><line x1="48.00" y1="101.81" x2="48.00" y2="106.19" stroke="#F4EEE2" stroke-width="2" stroke-linecap="round" opacity="0.125"></line><line x1="64.00" y1="101.59" x2="64.00" y2="106.41" stroke="#F4EEE2" stroke-width="2" stroke-linecap="round" opacity="0.103"></line><line x1="0.00" y1="100.35" x2="0.00" y2="107.65" stroke="#F4EEE2" stroke-width="2" stroke-linecap="round" opacity="0.073"></line><line x1="8.00" y1="117.02" x2="8.00" y2="122.98" stroke="#F4EEE2" stroke-width="2" stroke-linecap="round" opacity="0.084"></line><line x1="24.00" y1="116.90" x2="24.00" y2="123.10" stroke="#F4EEE2" stroke-width="2" stroke-linecap="round" opacity="0.098"></line><line x1="40.00" y1="117.80" x2="40.00" y2="122.20" stroke="#F4EEE2" stroke-width="2" stroke-linecap="round" opacity="0.110"></line><line x1="56.00" y1="116.39" x2="56.00" y2="123.61" stroke="#F4EEE2" stroke-width="2" stroke-linecap="round" opacity="0.124"></line><line x1="72.00" y1="116.70" x2="72.00" y2="123.30" stroke="#F4EEE2" stroke-width="2" stroke-linecap="round" opacity="0.105"></line><line x1="16.00" y1="133.63" x2="16.00" y2="138.37" stroke="#F4EEE2" stroke-width="2" stroke-linecap="round" opacity="0.090"></line><line x1="32.00" y1="133.24" x2="32.00" y2="138.76" stroke="#F4EEE2" stroke-width="2" stroke-linecap="round" opacity="0.089"></line><line x1="48.00" y1="132.73" x2="48.00" y2="139.27" stroke="#F4EEE2" stroke-width="2" stroke-linecap="round" opacity="0.096"></line><line x1="64.00" y1="133.22" x2="64.00" y2="138.78" stroke="#F4EEE2" stroke-width="2" stroke-linecap="round" opacity="0.126"></line><line x1="0.00" y1="132.84" x2="0.00" y2="139.16" stroke="#F4EEE2" stroke-width="2" stroke-linecap="round" opacity="0.115"></line><line x1="8.00" y1="149.37" x2="8.00" y2="154.63" stroke="#F4EEE2" stroke-width="2" stroke-linecap="round" opacity="0.122"></line><line x1="24.00" y1="148.16" x2="24.00" y2="155.84" stroke="#F4EEE2" stroke-width="2" stroke-linecap="round" opacity="0.118"></line><line x1="40.00" y1="148.72" x2="40.00" y2="155.28" stroke="#F4EEE2" stroke-width="2" stroke-linecap="round" opacity="0.078"></line><line x1="56.00" y1="149.06" x2="56.00" y2="154.94" stroke="#F4EEE2" stroke-width="2" stroke-linecap="round" opacity="0.074"></line><line x1="72.00" y1="149.80" x2="72.00" y2="154.20" stroke="#F4EEE2" stroke-width="2" stroke-linecap="round" opacity="0.113"></line><line x1="88.00" y1="-74.86" x2="88.00" y2="-69.14" stroke="#F4EEE2" stroke-width="2" stroke-linecap="round" opacity="0.097"></line><line x1="104.00" y1="-74.57" x2="104.00" y2="-69.43" stroke="#F4EEE2" stroke-width="2" stroke-linecap="round" opacity="0.093"></line><line x1="120.00" y1="-74.95" x2="120.00" y2="-69.05" stroke="#F4EEE2" stroke-width="2" stroke-linecap="round" opacity="0.124"></line><line x1="136.00" y1="-75.74" x2="136.00" y2="-68.26" stroke="#F4EEE2" stroke-width="2" stroke-linecap="round" opacity="0.091"></line><line x1="152.00" y1="-74.89" x2="152.00" y2="-69.11" stroke="#F4EEE2" stroke-width="2" stroke-linecap="round" opacity="0.117"></line><line x1="96.00" y1="-58.38" x2="96.00" y2="-53.62" stroke="#F4EEE2" stroke-width="2" stroke-linecap="round" opacity="0.090"></line><line x1="112.00" y1="-59.23" x2="112.00" y2="-52.77" stroke="#F4EEE2" stroke-width="2" stroke-linecap="round" opacity="0.090"></line><line x1="128.00" y1="-58.19" x2="128.00" y2="-53.81" stroke="#F4EEE2" stroke-width="2" stroke-linecap="round" opacity="0.125"></line><line x1="144.00" y1="-58.41" x2="144.00" y2="-53.59" stroke="#F4EEE2" stroke-width="2" stroke-linecap="round" opacity="0.103"></line><line x1="80.00" y1="-59.65" x2="80.00" y2="-52.35" stroke="#F4EEE2" stroke-width="2" stroke-linecap="round" opacity="0.073"></line><line x1="88.00" y1="-42.98" x2="88.00" y2="-37.02" stroke="#F4EEE2" stroke-width="2" stroke-linecap="round" opacity="0.084"></line><line x1="104.00" y1="-43.10" x2="104.00" y2="-36.90" stroke="#F4EEE2" stroke-width="2" stroke-linecap="round" opacity="0.098"></line><line x1="120.00" y1="-42.20" x2="120.00" y2="-37.80" stroke="#F4EEE2" stroke-width="2" stroke-linecap="round" opacity="0.110"></line><line x1="136.00" y1="-43.61" x2="136.00" y2="-36.39" stroke="#F4EEE2" stroke-width="2" stroke-linecap="round" opacity="0.124"></line><line x1="152.00" y1="-43.30" x2="152.00" y2="-36.70" stroke="#F4EEE2" stroke-width="2" stroke-linecap="round" opacity="0.105"></line><line x1="96.00" y1="-26.37" x2="96.00" y2="-21.63" stroke="#F4EEE2" stroke-width="2" stroke-linecap="round" opacity="0.090"></line><line x1="112.00" y1="-26.76" x2="112.00" y2="-21.24" stroke="#F4EEE2" stroke-width="2" stroke-linecap="round" opacity="0.089"></line><line x1="128.00" y1="-27.27" x2="128.00" y2="-20.73" stroke="#F4EEE2" stroke-width="2" stroke-linecap="round" opacity="0.096"></line><line x1="144.00" y1="-26.78" x2="144.00" y2="-21.22" stroke="#F4EEE2" stroke-width="2" stroke-linecap="round" opacity="0.126"></line><line x1="80.00" y1="-27.16" x2="80.00" y2="-20.84" stroke="#F4EEE2" stroke-width="2" stroke-linecap="round" opacity="0.115"></line><line x1="88.00" y1="-10.63" x2="88.00" y2="-5.37" stroke="#F4EEE2" stroke-width="2" stroke-linecap="round" opacity="0.122"></line><line x1="104.00" y1="-11.84" x2="104.00" y2="-4.16" stroke="#F4EEE2" stroke-width="2" stroke-linecap="round" opacity="0.118"></line><line x1="120.00" y1="-11.28" x2="120.00" y2="-4.72" stroke="#F4EEE2" stroke-width="2" stroke-linecap="round" opacity="0.078"></line><line x1="136.00" y1="-10.94" x2="136.00" y2="-5.06" stroke="#F4EEE2" stroke-width="2" stroke-linecap="round" opacity="0.074"></line><line x1="152.00" y1="-10.20" x2="152.00" y2="-5.80" stroke="#F4EEE2" stroke-width="2" stroke-linecap="round" opacity="0.113"></line><line x1="88.00" y1="5.14" x2="88.00" y2="10.86" stroke="#F4EEE2" stroke-width="2" stroke-linecap="round" opacity="0.097"></line><line x1="104.00" y1="5.43" x2="104.00" y2="10.57" stroke="#F4EEE2" stroke-width="2" stroke-linecap="round" opacity="0.093"></line><line x1="120.00" y1="5.05" x2="120.00" y2="10.95" stroke="#F4EEE2" stroke-width="2" stroke-linecap="round" opacity="0.124"></line><line x1="136.00" y1="4.26" x2="136.00" y2="11.74" stroke="#F4EEE2" stroke-width="2" stroke-linecap="round" opacity="0.091"></line><line x1="152.00" y1="5.11" x2="152.00" y2="10.89" stroke="#F4EEE2" stroke-width="2" stroke-linecap="round" opacity="0.117"></line><line x1="96.00" y1="21.62" x2="96.00" y2="26.38" stroke="#F4EEE2" stroke-width="2" stroke-linecap="round" opacity="0.090"></line><line x1="112.00" y1="20.77" x2="112.00" y2="27.23" stroke="#F4EEE2" stroke-width="2" stroke-linecap="round" opacity="0.090"></line><line x1="128.00" y1="21.81" x2="128.00" y2="26.19" stroke="#F4EEE2" stroke-width="2" stroke-linecap="round" opacity="0.125"></line><line x1="144.00" y1="21.59" x2="144.00" y2="26.41" stroke="#F4EEE2" stroke-width="2" stroke-linecap="round" opacity="0.103"></line><line x1="80.00" y1="20.35" x2="80.00" y2="27.65" stroke="#F4EEE2" stroke-width="2" stroke-linecap="round" opacity="0.073"></line><line x1="88.00" y1="37.02" x2="88.00" y2="42.98" stroke="#F4EEE2" stroke-width="2" stroke-linecap="round" opacity="0.084"></line><line x1="104.00" y1="36.90" x2="104.00" y2="43.10" stroke="#F4EEE2" stroke-width="2" stroke-linecap="round" opacity="0.098"></line><line x1="120.00" y1="37.80" x2="120.00" y2="42.20" stroke="#F4EEE2" stroke-width="2" stroke-linecap="round" opacity="0.110"></line><line x1="136.00" y1="36.39" x2="136.00" y2="43.61" stroke="#F4EEE2" stroke-width="2" stroke-linecap="round" opacity="0.124"></line><line x1="152.00" y1="36.70" x2="152.00" y2="43.30" stroke="#F4EEE2" stroke-width="2" stroke-linecap="round" opacity="0.105"></line><line x1="96.00" y1="53.63" x2="96.00" y2="58.37" stroke="#F4EEE2" stroke-width="2" stroke-linecap="round" opacity="0.090"></line><line x1="112.00" y1="53.24" x2="112.00" y2="58.76" stroke="#F4EEE2" stroke-width="2" stroke-linecap="round" opacity="0.089"></line><line x1="128.00" y1="52.73" x2="128.00" y2="59.27" stroke="#F4EEE2" stroke-width="2" stroke-linecap="round" opacity="0.096"></line><line x1="144.00" y1="53.22" x2="144.00" y2="58.78" stroke="#F4EEE2" stroke-width="2" stroke-linecap="round" opacity="0.126"></line><line x1="80.00" y1="52.84" x2="80.00" y2="59.16" stroke="#F4EEE2" stroke-width="2" stroke-linecap="round" opacity="0.115"></line><line x1="88.00" y1="69.37" x2="88.00" y2="74.63" stroke="#F4EEE2" stroke-width="2" stroke-linecap="round" opacity="0.122"></line><line x1="104.00" y1="68.16" x2="104.00" y2="75.84" stroke="#F4EEE2" stroke-width="2" stroke-linecap="round" opacity="0.118"></line><line x1="120.00" y1="68.72" x2="120.00" y2="75.28" stroke="#F4EEE2" stroke-width="2" stroke-linecap="round" opacity="0.078"></line><line x1="136.00" y1="69.06" x2="136.00" y2="74.94" stroke="#F4EEE2" stroke-width="2" stroke-linecap="round" opacity="0.074"></line><line x1="152.00" y1="69.80" x2="152.00" y2="74.20" stroke="#F4EEE2" stroke-width="2" stroke-linecap="round" opacity="0.113"></line><line x1="88.00" y1="85.14" x2="88.00" y2="90.86" stroke="#F4EEE2" stroke-width="2" stroke-linecap="round" opacity="0.097"></line><line x1="104.00" y1="85.43" x2="104.00" y2="90.57" stroke="#F4EEE2" stroke-width="2" stroke-linecap="round" opacity="0.093"></line><line x1="120.00" y1="85.05" x2="120.00" y2="90.95" stroke="#F4EEE2" stroke-width="2" stroke-linecap="round" opacity="0.124"></line><line x1="136.00" y1="84.26" x2="136.00" y2="91.74" stroke="#F4EEE2" stroke-width="2" stroke-linecap="round" opacity="0.091"></line><line x1="152.00" y1="85.11" x2="152.00" y2="90.89" stroke="#F4EEE2" stroke-width="2" stroke-linecap="round" opacity="0.117"></line><line x1="96.00" y1="101.62" x2="96.00" y2="106.38" stroke="#F4EEE2" stroke-width="2" stroke-linecap="round" opacity="0.090"></line><line x1="112.00" y1="100.77" x2="112.00" y2="107.23" stroke="#F4EEE2" stroke-width="2" stroke-linecap="round" opacity="0.090"></line><line x1="128.00" y1="101.81" x2="128.00" y2="106.19" stroke="#F4EEE2" stroke-width="2" stroke-linecap="round" opacity="0.125"></line><line x1="144.00" y1="101.59" x2="144.00" y2="106.41" stroke="#F4EEE2" stroke-width="2" stroke-linecap="round" opacity="0.103"></line><line x1="80.00" y1="100.35" x2="80.00" y2="107.65" stroke="#F4EEE2" stroke-width="2" stroke-linecap="round" opacity="0.073"></line><line x1="88.00" y1="117.02" x2="88.00" y2="122.98" stroke="#F4EEE2" stroke-width="2" stroke-linecap="round" opacity="0.084"></line><line x1="104.00" y1="116.90" x2="104.00" y2="123.10" stroke="#F4EEE2" stroke-width="2" stroke-linecap="round" opacity="0.098"></line><line x1="120.00" y1="117.80" x2="120.00" y2="122.20" stroke="#F4EEE2" stroke-width="2" stroke-linecap="round" opacity="0.110"></line><line x1="136.00" y1="116.39" x2="136.00" y2="123.61" stroke="#F4EEE2" stroke-width="2" stroke-linecap="round" opacity="0.124"></line><line x1="152.00" y1="116.70" x2="152.00" y2="123.30" stroke="#F4EEE2" stroke-width="2" stroke-linecap="round" opacity="0.105"></line><line x1="96.00" y1="133.63" x2="96.00" y2="138.37" stroke="#F4EEE2" stroke-width="2" stroke-linecap="round" opacity="0.090"></line><line x1="112.00" y1="133.24" x2="112.00" y2="138.76" stroke="#F4EEE2" stroke-width="2" stroke-linecap="round" opacity="0.089"></line><line x1="128.00" y1="132.73" x2="128.00" y2="139.27" stroke="#F4EEE2" stroke-width="2" stroke-linecap="round" opacity="0.096"></line><line x1="144.00" y1="133.22" x2="144.00" y2="138.78" stroke="#F4EEE2" stroke-width="2" stroke-linecap="round" opacity="0.126"></line><line x1="80.00" y1="132.84" x2="80.00" y2="139.16" stroke="#F4EEE2" stroke-width="2" stroke-linecap="round" opacity="0.115"></line><line x1="88.00" y1="149.37" x2="88.00" y2="154.63" stroke="#F4EEE2" stroke-width="2" stroke-linecap="round" opacity="0.122"></line><line x1="104.00" y1="148.16" x2="104.00" y2="155.84" stroke="#F4EEE2" stroke-width="2" stroke-linecap="round" opacity="0.118"></line><line x1="120.00" y1="148.72" x2="120.00" y2="155.28" stroke="#F4EEE2" stroke-width="2" stroke-linecap="round" opacity="0.078"></line><line x1="136.00" y1="149.06" x2="136.00" y2="154.94" stroke="#F4EEE2" stroke-width="2" stroke-linecap="round" opacity="0.074"></line><line x1="152.00" y1="149.80" x2="152.00" y2="154.20" stroke="#F4EEE2" stroke-width="2" stroke-linecap="round" opacity="0.113"></line></svg>