<svg xmlns="http://www.w3.org/2000/svg" width="200" height="108" viewBox="35 12 153 82" fill="none" role="img" aria-label="Pause for a Minute mark"><path d="M165.97,47.93c-.73.18-.98-2.86-3.87-5.62l-4.2-4.02-3.87-3.06-4.97-3.57-2.74-1.84-4.16-2.47-8.9-4.25-4.47-1.81c-.6-.24-1.27-.3-1.96-.19l4.36,1.9-10.03-2.08c-6.96-1.44-16.21-.59-23.23,1.01-1.79.41-3.38.96-5.23.95l10.29-2.86c-8.03.62-15.59,3.47-22.53,7.31l.15.72c.02.1.07.34.06.33-.62-1.23-3.51,1.15-5.33,2.35l-3.8,2.51-2.7,2.18c-1.14.92-1.81,1.84-2.97,2.68-3.65,2.63-6.26,6.16-9.19,9.57-.8.93-2.08,2.32-2.53,3.22-.07.14.61.58.57.73-.06.19-.28.72-.45.87l-1.58,1.37c-1.1.95-1.66,2.55-2.4,3.88-4,7.18-6.52,14.78-7.61,22.91l-.82,6.12-2.15,1.02.26-3.61c.41-5.66,2.23-11.07,2.02-12.93-.13-1.16-.38-1.81-.07-2.82,1.24-4.03,2.77-7.72,4.61-11.51.7-1.43,1.35-3.03,2.42-4.1l.83-.84c.2-.2-.3-.69-.72-1.08l2.86-4.52.59,1.19c1.9-2.97,3.66-5.52,6.1-7.83l7.59-7.19c3.02-2.86,6.13-5.2,9.59-7.52,4.83-3.24,9.64-6.17,15.2-8.07l1.46.11c4.55-1.39,11.29-2.77,15.72-2.79h1.74c1.28-.24,2.76-.38,4.19-.2l3.12.41c4.41.58,8.71,1.58,12.92,2.89,1.13.35,2.03.79,3.2.33l-5.51-2.05c1.27-.08,2.04.25,3.07.58l2.94.94,3.15,1.41-.74.61,3.11,1.33.93-.36c.16-.06.14.51.17.7,4.11,2.08,8.25,3.97,11.72,6.98l2.82,2.45,4.23,3.64,5.88,5.96c3.06,3.11,5.61,6.5,7.7,10.15l.9-.71c.39.75.46,1.55.38,2.33,1.31,2.51,2.75,5.04,3.67,7.75l2.77,8.14c.18.54.32.81,1.01,1.18l-2.63-9.62c2.78,6.13,4.18,12.67,5.16,19.27-1.45-2.63-1.03-7.05-2.83-9.34l.97,5.32.5,3.92.5,9.38c-.59.03-1.15.03-1.18-.22l-.14-1.26-.8-6.39-1.2-5.11c-.76-3.23-1.96-6.46-3.39-9-.66.55-1.45-.74-1.13-1.58,0-.01.28.42.34.51.09.13.47.09.44-.06s-.14-.49-.23-.63l-.43-.73c-.08-.14-.54.51-.69.69l-.91-2.83c-.23-.72-.39-1.13-.78-1.86l-2.9-5.39-1.41-2.94-1.95-3.18-.92.23Z" fill="#f4eee2"></path><path d="M138.02,30.13l-4.71-1.68c-7.83-2.8-17.55-4.58-25.73-3.82-4.59.43-8.76.89-13.09,2.4-10.33,3.61-19.61,8.78-27.34,16.66l-2.59,2.65-2.48,3.1c-7.53,9.39-10.96,19.2-14.05,30.64.53-7.46,3.32-14.15,6.53-20.74,3.86-7.95,9.58-14.48,16.19-20.26,8.55-7.47,19.42-12.57,30.62-14.41,13.64-2.24,24.73-.5,37.01,5.12l.12.13,6.48,3.91c8.22,4.97,14.71,11.82,20,19.74,1.79,2.72,3.23,5.29,4.61,8.18l.55.64c.11.13-.62.52-.63.48-7.19-14.1-16.87-24.63-31.27-31.51l.49-.55c.13-.14-.33-.49-.47-.59l-.21-.1Z" fill="#7e44b4"></path><path d="M112.96,43.59c-.02.51-1.19,1.05-1.7.88s-1.32-1-1.31-1.54l.02-9.34c0-.83,1.08-1.75,1.82-1.66.85.11,1.57,1.09,1.54,1.99l-.36,9.65Z" fill="#7e44b4"></path><path d="M151.68,64.39c-.29.19-1.3-.04-1.36-.36l-.28-1.47,6.73-4.23c.37-.23,1.47.15,1.61.53.21.56-.21,1.32-.81,1.7l-5.9,3.83Z" fill="#7e44b4"></path><path d="M158.96,82.59c-.71.21-1.37.08-1.67-.58-.23-.51.23-1.28.89-1.46l7.08-1.93c.49-.13,1.24.13,1.46.69.17.43-.32,1.13-.87,1.29l-6.9,1.98Z" fill="#7e44b4"></path><path d="M65.08,82.91l-8.22-2.38c-.66-.19.21-2.07.87-1.88l6.94,1.96c.4.11.98.53,1.24.8s-.41,1.62-.82,1.5Z" fill="#7e44b4"></path><path d="M70.23,63.43l-5.11-3.28c-.31-.43.47-1.67,1.05-1.71l5.37,3.36c.58.37.77,1.15.31,1.71-.43.53-.98.33-1.63-.08Z" fill="#7e44b4"></path><path d="M135.57,48.92c-.2.38-.86,1.23-1.16,1.07l-1.26-.66c-.3-.16.19-1.16.38-1.51l3.92-7.22c.28-.52,2.18.55,1.93,1.07l-3.81,7.26Z" fill="#7e44b4"></path><path d="M89.34,47.31c.17.33.14,1.2-.02,1.49-.2.36-1.35.46-1.55.1l-3.65-6.55c-.26-.48-.33-1.4-.07-1.73s1.43-.48,1.73-.17l3.55,6.86Z" fill="#7e44b4"></path><polygon points="174.74 78.76 173.69 73.56 174.04 73.33 175.52 78.45 174.74 78.76" fill="#7e44b4"></polygon></svg>
