<svg xmlns="http://www.w3.org/2000/svg" viewBox="0 0 223.92 188.1"><path d="M138.02,30.13l-4.71-1.68c-7.83-2.8-17.55-4.58-25.73-3.82-4.59.43-8.76.89-13.09,2.4-10.33,3.61-19.61,8.78-27.34,16.66l-2.59,2.65-2.48,3.1c-7.53,9.39-10.96,19.2-14.05,30.64.53-7.46,3.32-14.15,6.53-20.74,3.86-7.95,9.58-14.48,16.19-20.26,8.55-7.47,19.42-12.57,30.62-14.41,13.64-2.24,24.73-.5,37.01,5.12l.12.13,6.48,3.91c8.22,4.97,14.71,11.82,20,19.74,1.79,2.72,3.23,5.29,4.61,8.18l.55.64c.11.13-.62.52-.63.48-7.19-14.1-16.87-24.63-31.27-31.51l.49-.55c.13-.14-.33-.49-.47-.59l-.21-.1Z" fill="#000"></path><path d="M112.96,43.59c-.02.51-1.19,1.05-1.7.88s-1.32-1-1.31-1.54l.02-9.34c0-.83,1.08-1.75,1.82-1.66.85.11,1.57,1.09,1.54,1.99l-.36,9.65Z" fill="#000"></path><path d="M151.68,64.39c-.29.19-1.3-.04-1.36-.36l-.28-1.47,6.73-4.23c.37-.23,1.47.15,1.61.53.21.56-.21,1.32-.81,1.7l-5.9,3.83Z" fill="#000"></path><path d="M158.96,82.59c-.71.21-1.37.08-1.67-.58-.23-.51.23-1.28.89-1.46l7.08-1.93c.49-.13,1.24.13,1.46.69.17.43-.32,1.13-.87,1.29l-6.9,1.98Z" fill="#000"></path><path d="M65.08,82.91l-8.22-2.38c-.66-.19.21-2.07.87-1.88l6.94,1.96c.4.11.98.53,1.24.8s-.41,1.62-.82,1.5Z" fill="#000"></path><path d="M70.23,63.43l-5.11-3.28c-.31-.43.47-1.67,1.05-1.71l5.37,3.36c.58.37.77,1.15.31,1.71-.43.53-.98.33-1.63-.08Z" fill="#000"></path><path d="M135.57,48.92c-.2.38-.86,1.23-1.16,1.07l-1.26-.66c-.3-.16.19-1.16.38-1.51l3.92-7.22c.28-.52,2.18.55,1.93,1.07l-3.81,7.26Z" fill="#000"></path><path d="M89.34,47.31c.17.33.14,1.2-.02,1.49-.2.36-1.35.46-1.55.1l-3.65-6.55c-.26-.48-.33-1.4-.07-1.73s1.43-.48,1.73-.17l3.55,6.86Z" fill="#000"></path><polygon points="174.74 78.76 173.69 73.56 174.04 73.33 175.52 78.45 174.74 78.76" fill="#000"></polygon><path d="M117.99,81.2c-.75-.06-1.79-.31-2.18-.64-.48-.41-.81-1.46-.8-2.24l.1-17.68c.44-1.27,2.19-1.8,3.22-1.72.97.07,3.04.64,3.05,2.13l.11,16.95c.01,1.93-1.23,3.38-3.5,3.21Z" fill="#000"></path><path d="M105.98,81.18c-2.04-.04-3.08-1.14-3.08-2.87l.04-17.7c.66-1.14,2.2-1.74,3.26-1.7.89.03,3.04.44,3.04,1.79l.05,18.2c0,1.58-1.98,2.3-3.31,2.27Z" fill="#000"></path><path d="M193.94,168.49l-5.8.06-6.71.07c-.24,0-1.05-.45-.93-.59l.74-.83,12.82.04.71.6c.2.17-.56.66-.84.66Z" fill="#000"></path><path d="M43.01,168.37l-4.54.16-8.96-.11-.88-.45c-.22-.11.32-.66.59-.83h11.49c.89,0,1.78-.23,2.3,1.23Z" fill="#000"></path></svg>
