<svg xmlns="http://www.w3.org/2000/svg" viewBox="0 0 223.92 188.1"><path d="M12.85,158.97c-.64,0-1.1-.11-1.44-.34-.76-.51-1.06-1.72-1.06-4.29v-.82l.1-3.47.07-1.75c.04-1.17.06-2.03.06-2.6l.1-3.58.07-1.79.1-6.2v-1.75l.03-1.83v-2.65l.07-3.49v-1.74c0-17.72.46-18.71.7-19.24.42-.9,1.6-1.96,7.25-3.03,2.41-.52,4.85-1.03,7.29-1.52l2.3-.4c1.11-.19,2.22-.29,3.28-.29,1.23,0,2.44.13,3.61.38,2.21.48,4.04,1.36,5.44,2.63,1.4,1.27,2.49,3.02,3.23,5.21.72,2.13,1.09,4.38,1.09,6.7v1.92c0,6.28-1.97,11.46-5.85,15.4-1.98,2.02-4.96,3.6-9.11,4.82-6.91,2.09-8.42,2.96-8.7,3.15-.45.88-.96,3.07-.96,8.41,0,6.51-.51,8.33-.89,9.13-.67,1.4-2.08,2.32-4.2,2.73-1.1.22-1.95.32-2.58.32ZM21.32,126.69s.17.03.42.03c.34,0,.77-.05,1.3-.14,1.05-.19,2.1-.38,3.16-.56,5.84-1.01,8.56-4.01,8.56-9.45v-1.53c0-2.45-.59-4.19-1.81-5.33-.87-.81-2.09-1.22-3.63-1.22-.59,0-1.24.06-1.92.18l-2.53.44-.26.08-.55.1c-.37.12-.66.2-.87.23-.64.12-1.43.37-1.61.93-.11.33-.35,1.86-.35,8.89l-.03.76v1.68s-.03,1.41-.03,1.41v.94c.06.71.1,1.44.1,2.17,0,.26.04.37.05.39,0,0,0,0,.01,0Z" fill="#000"></path><path d="M49.1,152.27c-.86,0-1.52-.16-2.02-.5-.62-.42-.96-1.1-.96-1.91,0-.5,0-1.84,5.98-24.1,2.21-8.23,5.96-22.15,6.24-22.89,2.32-5.96,3.24-7.39,3.73-7.95.9-.99,2.39-1.57,4.57-1.77.45-.04.86-.05,1.24-.05,1.53,0,2.6.28,3.29.84,1.11.94,3.05,3.81,7.14,17.87,2.97,10.22,4.74,16.68,5.25,19.2.5,2.45,1.21,5.44,2.1,8.9,1.4,5.4,1.4,5.98,1.4,6.26,0,1.41-.72,3.13-4.16,3.33-.19.01-.37.02-.54.02-2.24,0-3.92-.87-4.99-2.58-.66-1.06-1.37-2.98-2.18-5.86-1.03-3.65-1.46-4.4-1.57-4.55-.1-.13-.63-.6-2.69-.6-.46,0-.96.02-1.5.07-6.86.59-9.2,1.63-9.99,2.2-.21.15-1.01.98-2.18,5.08-1.28,4.44-1.84,5.62-2.15,6.12-.99,1.59-2.65,2.54-4.92,2.81-.4.05-.77.07-1.09.07ZM61.63,126.56c.17.04.46.07.93.07.39,0,.87-.03,1.4-.08,1.67-.16,3.34-.31,5.02-.46,1.46-.13,2.01-.36,2.19-.47v-.05c0-2.83-1.42-8.58-4.23-17.1-.04-.11-.07-.21-.1-.31-.07.21-.16.43-.24.69-3.83,11.08-4.84,15.75-4.96,17.71Z" fill="#000"></path><path d="M111.06,149.45c-6.45,0-11.26-2.63-14.3-7.82-1.21-2.05-2-4.35-2.36-6.84-.35-2.43-.52-7.14-.52-14.4s-.09-13-.26-17.55l-.13-2.45c-.11-2.05-.17-3.33-.17-3.78v-1.26c0-2.11,1.25-3.36,3.43-3.42.18,0,.35,0,.51,0,1.55,0,2.73.21,3.59.65,1.12.56,1.84,1.84,2.21,3.91.75,4.11,1.13,11.5,1.13,21.97l.07,2.72c.02.92.03,2.32.03,4.19,0,4.75.71,8.29,2.12,10.52,1.34,2.11,3.44,3.14,6.43,3.15,2.94,0,4.98-1.35,6.29-4.13,1.13-2.38,1.7-7.18,1.7-14.28l.07-2.81.1-9.68c0-10.07.28-12.42.49-13.31.53-2.28,2.18-3.54,4.63-3.54h.22c2.65.08,4.14.92,4.45,2.5.04.21.09.46.09,11.09l.07,6.82c0,.92.01,1.81.03,2.69l.1,4.04v4.11c0,5.39-.21,9.49-.64,12.21-.95,5.94-3.91,10.15-8.81,12.52-3.03,1.46-6.17,2.2-9.31,2.2h-1.27Z" fill="#000"></path><path d="M158.99,151.99c-.64,0-1.31-.03-1.99-.09-4.69-.44-8.23-1.36-10.81-2.83-2.63-1.49-4.37-2.82-5.33-4.06-1.02-1.32-1.54-2.78-1.54-4.34s.43-2.88,1.29-3.81c.85-.94,1.6-1.37,2.33-1.37h.11c.33.03.93.07,5.57,2.84,2.85,1.7,5.47,2.68,7.8,2.89.49.04.95.07,1.39.07,4.66,0,5.27-2.54,5.28-4.76,0-2.31-.75-4.14-2.3-5.58-.85-.78-2.93-2.3-8.04-5.08-4.45-2.42-7.57-4.83-9.54-7.37-2.03-2.63-3.06-6.03-3.06-10.11,0-7.87,3.22-12.87,9.57-14.85,1.72-.54,3.49-.81,5.29-.81.56,0,1.13.03,1.69.08l1.14.11c3.03.28,6.06,1.36,9,3.2,3.13,1.96,4.73,4.16,4.73,6.53,0,1.3-.27,2.48-.79,3.5-.74,1.42-1.79,1.72-2.55,1.72-.11,0-.23,0-.35-.02-.32-.03-.49-.05-5.45-3.08-1.69-1.03-3.98-1.68-6.79-1.93-.19-.02-.38-.03-.57-.03-1.28,0-2.35.4-3.29,1.24-1.03.92-1.54,1.99-1.54,3.26,0,2.2.8,4.01,2.44,5.54.92.85,4.56,2.92,7.22,4.39,4.19,2.33,7.22,4.6,9,6.75,1.76,2.12,2.96,4.17,3.56,6.08.6,1.89.9,3.82.9,5.73v1.33c0,4.94-1.57,8.8-4.65,11.48-2.6,2.25-5.87,3.4-9.72,3.4Z" fill="#000"></path><path d="M209.57,158.59c-2.35,0-6.16-.48-12.35-1.57-1.15-.2-2.29-.4-3.44-.59-5.06-.85-7.88-1.69-9.12-2.74-1.64-1.36-2.4-4.67-2.4-10.41v-6.99c0-4.54.14-9.23.43-13.94.28-4.68.42-9.41.42-14.06,0-6.64.8-8.28,1.58-9.01.85-.79,2.26-1.18,4.3-1.18,1.25,0,2.77.15,4.51.44,2.19.37,4.39.75,6.58,1.14l1.1.24c1.38.24,2.8.49,4.22.75,2.69.51,4.53,1.16,5.65,1.99,1.25.93,1.89,2.39,1.89,4.36,0,3.09-1.63,4.78-4.58,4.78-.61,0-1.3-.07-2.04-.22l-1.95-.45-1.9-.28c-1.07-.2-2.11-.39-3.15-.57-1.54-.27-2.79-.41-3.71-.41-1.03,0-1.29.18-1.3.18-.17.15-1.11,1.3-1.11,8.21,0,1.51.62,2.05,1.08,2.33.91.54,3.35,1.18,7.27,1.89,6.29,1.15,6.92,1.91,7.22,2.27.63.76.92,2.13.92,4.34,0,3.07-1.28,3.97-2.35,4.17-.09.02-.25.04-.45.04-.85,0-2.79-.29-6.69-1-1.89-.34-3.45-.51-4.64-.51-1.48,0-1.95.27-2.06.35-.17.13-1,1.03-1,6.25,0,4.81.79,6.21,1.27,6.62.63.54,2.59,1.41,8.4,2.47,4.85.89,7.94,1.8,9.16,2.68,1.34.97,2.01,2.62,2.01,4.9,0,1.05-.36,3.5-3.68,3.51h-.11Z" fill="#000"></path><path d="M165.97,47.93c-.73.18-.98-2.86-3.87-5.62l-4.2-4.02-3.87-3.06-4.97-3.57-2.74-1.84-4.16-2.47-8.9-4.25-4.47-1.81c-.6-.24-1.27-.3-1.96-.19l4.36,1.9-10.03-2.08c-6.96-1.44-16.21-.59-23.23,1.01-1.79.41-3.38.96-5.23.95l10.29-2.86c-8.03.62-15.59,3.47-22.53,7.31l.15.72c.02.1.07.34.06.33-.62-1.23-3.51,1.15-5.33,2.35l-3.8,2.51-2.7,2.18c-1.14.92-1.81,1.84-2.97,2.68-3.65,2.63-6.26,6.16-9.19,9.57-.8.93-2.08,2.32-2.53,3.22-.07.14.61.58.57.73-.06.19-.28.72-.45.87l-1.58,1.37c-1.1.95-1.66,2.55-2.4,3.88-4,7.18-6.52,14.78-7.61,22.91l-.82,6.12-2.15,1.02.26-3.61c.41-5.66,2.23-11.07,2.02-12.93-.13-1.16-.38-1.81-.07-2.82,1.24-4.03,2.77-7.72,4.61-11.51.7-1.43,1.35-3.03,2.42-4.1l.83-.84c.2-.2-.3-.69-.72-1.08l2.86-4.52.59,1.19c1.9-2.97,3.66-5.52,6.1-7.83l7.59-7.19c3.02-2.86,6.13-5.2,9.59-7.52,4.83-3.24,9.64-6.17,15.2-8.07l1.46.11c4.55-1.39,11.29-2.77,15.72-2.79h1.74c1.28-.24,2.76-.38,4.19-.2l3.12.41c4.41.58,8.71,1.58,12.92,2.89,1.13.35,2.03.79,3.2.33l-5.51-2.05c1.27-.08,2.04.25,3.07.58l2.94.94,3.15,1.41-.74.61,3.11,1.33.93-.36c.16-.06.14.51.17.7,4.11,2.08,8.25,3.97,11.72,6.98l2.82,2.45,4.23,3.64,5.88,5.96c3.06,3.11,5.61,6.5,7.7,10.15l.9-.71c.39.75.46,1.55.38,2.33,1.31,2.51,2.75,5.04,3.67,7.75l2.77,8.14c.18.54.32.81,1.01,1.18l-2.63-9.62c2.78,6.13,4.18,12.67,5.16,19.27-1.45-2.63-1.03-7.05-2.83-9.34l.97,5.32.5,3.92.5,9.38c-.59.03-1.15.03-1.18-.22l-.14-1.26-.8-6.39-1.2-5.11c-.76-3.23-1.96-6.46-3.39-9-.66.55-1.45-.74-1.13-1.58,0-.01.28.42.34.51.09.13.47.09.44-.06s-.14-.49-.23-.63l-.43-.73c-.08-.14-.54.51-.69.69l-.91-2.83c-.23-.72-.39-1.13-.78-1.86l-2.9-5.39-1.41-2.94-1.95-3.18-.92.23Z" fill="#000"></path><path d="M57.18,162.18h.37c.53,0,.79.14.79.41v.12c0,.21-.22.36-.65.45-.16.04-.6.08-1.32.12-.72.04-1.17.11-1.35.21-.18.1-.32.25-.39.46-.08.21-.12.59-.12,1.14s.11.9.33,1.03c.22.13.65.19,1.29.19s1.07.06,1.27.17c.2.11.3.28.3.49s-.09.36-.27.44c-.06.03-.27.07-.63.13l-.35.05c-.86.13-1.42.33-1.66.59-.25.26-.45.98-.61,2.16-.06.47-.11.74-.14.81-.11.25-.29.38-.52.38s-.39-.05-.47-.16c-.08-.11-.12-.32-.12-.64v-.35s-.01-.72-.01-.72v-.18s0-.18,0-.18c0-.46.02-.99.05-1.58.03-.58.05-1.28.05-2.08l-.06-2.06c0-.34.03-.58.1-.72s.2-.23.42-.29c.92-.25,2.16-.38,3.72-.38Z" fill="#000"></path><path d="M70.37,166.62v.46c0,.71-.09,1.38-.26,2.01-.17.63-.42,1.14-.75,1.53-.33.39-.74.71-1.23.95-.49.25-.99.37-1.5.37h-.46c-.48,0-.96-.11-1.42-.32-.95-.43-1.59-1.27-1.93-2.51-.15-.53-.22-1.16-.22-1.89v-.15c.01-.67.1-1.33.27-1.98.36-1.32,1.03-2.21,2.04-2.67.46-.21.96-.31,1.49-.31h.3c.47,0,.96.1,1.44.31.93.41,1.58,1.18,1.95,2.32.19.57.28,1.2.28,1.87ZM63.97,166.92v.45c0,.52.06,1,.18,1.44.23.83.61,1.4,1.16,1.71.32.19.67.28,1.04.28h.21c.36,0,.69-.1.98-.29.88-.57,1.31-1.71,1.32-3.41v-.45c0-1.01-.2-1.84-.6-2.48-.18-.29-.41-.52-.69-.69-.28-.17-.58-.26-.88-.26h-.31c-.36,0-.69.1-1,.3s-.55.44-.73.7-.33.64-.46,1.12c-.13.48-.2,1-.2,1.58Z" fill="#000"></path><path d="M79.75,167.74c0,.23.31.9.94,2.01.62,1.11.94,1.67.94,1.68,0,.14-.16.21-.47.21s-.58-.13-.82-.38c-.1-.1-.39-.57-.87-1.4-.48-.83-.84-1.34-1.06-1.54s-.58-.29-1.09-.29c-.31,0-.5.1-.58.29s-.14.63-.17,1.33c-.04.7-.08,1.14-.13,1.33-.11.42-.33.63-.65.63s-.5-.12-.55-.35c-.01-.07-.02-.84-.02-2.3v-3.17c0-.26,0-.57-.02-.94v-.18s-.03-.36-.03-.36v-.18c-.02-.24-.02-.36-.02-.36v-.17c0-.72.15-1.14.46-1.29s1.05-.21,2.24-.21h.4c1,0,1.76.24,2.28.7.52.46.78,1.11.78,1.93s-.31,1.57-.94,2.21c-.4.41-.6.68-.6.81ZM77.58,166.86c.73,0,1.3-.19,1.7-.56.4-.37.6-.86.6-1.46v-.14c0-.43-.14-.79-.4-1.07s-.6-.42-1.03-.42h-.13s-.44-.01-.44-.01c-.48,0-.81.05-1,.14s-.29.27-.29.52c-.02.16-.03.26-.03.31v.38c-.01.06-.01.13-.01.19v.06s0,.32,0,.32v.19s0,.13,0,.13v.2s0,.08,0,.12v.26s0,.19,0,.19c0,.28.04.46.11.54s.25.12.54.12h.23c.07,0,.13-.01.17-.01Z" fill="#000"></path><path d="M100.31,171.17v.12c0,.18-.14.27-.41.27s-.51-.11-.71-.34c-.2-.23-.4-.59-.6-1.07s-.35-.78-.44-.87c-.21-.2-.65-.3-1.31-.3-1.01,0-1.66.09-1.95.27-.17.11-.37.44-.6.98s-.36.84-.39.9c-.18.29-.41.44-.69.44h-.12c-.21,0-.32-.11-.32-.32,0-.17.15-.73.46-1.69,1.12-3.5,1.77-5.48,1.96-5.94.19-.46.38-.81.58-1.06.2-.25.46-.38.79-.38s.6.12.82.37c.22.25.5.79.85,1.64.66,1.6,1.21,3.32,1.64,5.17.05.19.13.51.26.95s.19.73.19.87ZM97.8,167.69v-.05s-.03-.17-.08-.43c-.06-.26-.1-.43-.12-.52-.03-.09-.11-.44-.24-1.04-.13-.6-.28-1.08-.45-1.43-.16-.35-.26-.53-.29-.53s-.12.18-.28.54c-.78,1.79-1.18,2.95-1.18,3.47v.04c0,.13.21.19.63.19h.36s.59,0,.59,0h.35s.11,0,.11,0h.22c.26-.01.39-.09.39-.24Z" fill="#000"></path><path d="M120.78,170.91c0,.32-.15.49-.46.49-.1,0-.23-.08-.38-.25-.15-.16-.26-.42-.32-.75s-.14-1.29-.21-2.85c-.08-1.56-.18-2.34-.3-2.34s-.5.72-1.13,2.15c-.64,1.44-1.01,2.23-1.11,2.39-.21.3-.43.45-.68.45s-.44-.12-.59-.37-.34-.69-.59-1.34c-.83-2.17-1.33-3.26-1.51-3.26-.1,0-.27.86-.49,2.57-.22,1.71-.34,2.59-.35,2.63-.14.54-.32.81-.55.81-.29,0-.44-.16-.44-.49,0-.1.02-.46.07-1.08.05-.61.08-1.12.09-1.53.01-.4.04-.93.07-1.59.03-.66.05-1.58.05-2.76,0-.33.06-.59.17-.79.16-.28.39-.42.7-.42s.6.2.89.6c.28.4.76,1.26,1.43,2.56.67,1.3,1.03,1.96,1.09,1.96s.4-.6,1.04-1.82c.63-1.21,1.06-1.98,1.27-2.31.43-.67.83-1.01,1.18-1.01.43,0,.71.18.84.54.13.36.19,1.35.19,2.97l-.05,2.71c0,.51.01.96.04,1.34.03.39.04.63.04.75Z" fill="#000"></path><path d="M125.84,170.85c0-.1.05-.43.16-.98.12-.59.18-1.23.18-1.92v-.51s.01-.25.01-.25v-.25s0-.25,0-.25v-.25c0-.84,0-1.42-.04-1.74-.03-.32-.09-.62-.18-.91-.09-.29-.13-.56-.13-.82,0-.51.35-.77,1.04-.77h.12c.29,0,.5.09.64.27s.21.38.21.59v.1c0,.09-.03.31-.1.66-.07.36-.1.73-.1,1.11v.25s-.03,1.02-.03,1.02v1.02c0,.12,0,.25,0,.37v.12s0,.49,0,.49v.25s0,.9,0,.9c0,.29.03.59.09.88.06.3.09.55.09.77s-.06.4-.2.55c-.13.15-.35.23-.66.23h-.23c-.25,0-.45-.07-.62-.2s-.25-.34-.25-.62v-.12Z" fill="#000"></path><path d="M133.5,162.61h.21c.34,0,.9.46,1.68,1.39.47.56,1.1,1.48,1.9,2.76.8,1.28,1.25,1.92,1.35,1.92.14,0,.24-.79.3-2.37s.13-2.54.2-2.9c.1-.53.31-.8.62-.8.24,0,.39.09.45.26.04.11.06.36.06.76l-.11,2.14c-.04.81-.06,1.77-.06,2.87s-.04,1.89-.11,2.38c-.05.3-.24.44-.58.44s-.71-.25-1.1-.76c-.02-.03-.62-1.01-1.8-2.95-1.18-1.94-1.85-2.91-2.01-2.91-.09,0-.19.9-.3,2.7-.11,1.8-.19,2.84-.23,3.11-.04.27-.13.47-.26.61s-.25.2-.33.2h-.18c-.19,0-.28-.14-.28-.41v-.72s0-.25,0-.25l.14-5.45-.03-1.54c0-.33.16-.49.48-.49Z" fill="#000"></path><path d="M148.62,170.68c.38,0,.73-.12,1.05-.34.31-.23.55-.56.7-.99.15-.43.27-1.51.34-3.25.08-1.73.15-2.78.23-3.13.08-.36.27-.53.56-.53s.47.04.52.13.08.3.08.65v.94s-.02,1.18-.02,1.18c0,1.98-.02,3.21-.06,3.71-.04.49-.14.9-.29,1.21-.24.47-.62.84-1.17,1.1-.54.27-1.23.4-2.07.4h-.24c-1.17,0-2.02-.44-2.56-1.31-.2-.33-.34-.74-.42-1.23-.08-.49-.12-1.28-.12-2.4l-.03-1.8-.03-1.27v-.41s-.01-.21-.01-.21c0-.27.04-.44.11-.51.07-.07.23-.1.47-.1.32,0,.54.24.66.72.15.64.23,1.87.23,3.69v.95c.01,1.44.41,2.33,1.2,2.67.2.08.49.12.87.12Z" fill="#000"></path><path d="M160.27,171.55c-.08.17-.28.26-.59.26s-.5-.07-.56-.19c-.06-.13-.1-.33-.1-.59s.02-.67.05-1.2c.04-.54.05-1.25.05-2.15l.03-1.22c0-.23.01-.39.01-.48v-.38c0-.98-.1-1.59-.31-1.86-.13-.16-.6-.25-1.41-.25-.41,0-.68-.04-.83-.13-.15-.08-.22-.24-.22-.45v-.12c0-.23.22-.38.66-.44.86-.12,2.08-.18,3.64-.18h1.36c.53,0,.87.03,1.04.1.16.07.24.22.24.44s-.12.39-.36.49c-.11.05-.45.1-1,.16s-.9.18-1.05.33c-.26.29-.4,1.04-.4,2.26v.35s-.01.17-.01.17l-.02,1.04c0,.11,0,.23,0,.35l-.08,2.02v.31s-.02.47-.02.47c0,.42-.04.71-.13.88Z" fill="#000"></path><path d="M173.17,171.18c0,.25-.19.41-.58.47-.66.11-1.51.16-2.56.16h-.71c-.87,0-1.41-.1-1.62-.31s-.31-.69-.31-1.45v-.71c0-.79.04-1.66.11-2.62.07-.96.11-1.86.11-2.69s.12-1.32.35-1.47c.43-.27,1.43-.4,2.98-.4h.68c.51,0,.87.03,1.09.1s.32.2.32.41c0,.24-.17.41-.5.5-.34.09-.88.15-1.63.19s-1.22.12-1.41.27c-.3.23-.44.78-.44,1.65,0,.4.1.64.31.72s.7.16,1.48.21,1.16.08,1.17.08c.24.06.36.23.36.51s-.14.46-.41.54c-.07.02-.51.06-1.3.12-.8.06-1.28.13-1.44.23-.23.13-.35.48-.35,1.05,0,.91.14,1.48.42,1.72.16.13.7.19,1.64.19h1.08c.78-.01,1.17.18,1.17.56Z" fill="#000"></path></svg>
